<?xml version="1.0" encoding="UTF-8"?>
<svg width="48px" height="48px" viewBox="0 0 48 48" version="1.1" xmlns="http://www.w3.org/2000/svg" xmlns:xlink="http://www.w3.org/1999/xlink">
    <!-- Generator: Sketch 64 (93537) - https://sketch.com -->
    <title>iconografia/marca/Contenido-y-ayuda/Conoce nuestra app/off</title>
    <desc>Created with Sketch.</desc>
    <g id="iconografia/marca/Contenido-y-ayuda/Conoce-nuestra-app/off" stroke="none" stroke-width="1" fill="none" fill-rule="evenodd">
        <path d="M35.1133,4 L13.1493,4 C11.9643,4 11.0003,4.964 11.0003,6.149 L11.0003,27.409 C11.0003,27.858 11.3643,28.223 11.8133,28.223 C12.2623,28.223 12.6273,27.858 12.6273,27.409 L12.6273,6.149 C12.6273,5.861 12.8613,5.627 13.1493,5.627 L35.1133,5.627 C35.4023,5.627 35.6363,5.861 35.6363,6.149 L35.6363,41.478 C35.6363,41.766 35.4023,42 35.1133,42 L13.1493,42 C12.8613,42 12.6273,41.766 12.6273,41.478 L12.6273,33.731 C12.6273,33.282 12.2623,32.918 11.8133,32.918 C11.3643,32.918 11.0003,33.282 11.0003,33.731 L11.0003,41.478 C11.0003,42.663 11.9643,43.627 13.1493,43.627 L35.1133,43.627 C36.2993,43.627 37.2633,42.663 37.2633,41.478 L37.2633,6.149 C37.2633,4.964 36.2993,4 35.1133,4" id="Fill-1" fill="#5C5C60"></path>
        <path d="M16.762,33.12 L31.502,33.12 L31.502,10.711 L16.762,10.711 L16.762,33.12 Z M15.135,34.747 L33.129,34.747 L33.129,9.084 L15.135,9.084 L15.135,34.747 Z" id="Fill-3" fill="#5C5C60"></path>
        <polygon id="Fill-5" fill="#5C5C60" points="21.54 7.977 26.726 7.977 26.726 6.681 21.54 6.681"></polygon>
        <path d="M25.2969,38.4483 C25.2969,39.0913 24.7749,39.6133 24.1319,39.6133 C23.4899,39.6133 22.9679,39.0913 22.9679,38.4483 C22.9679,37.8063 23.4899,37.2843 24.1319,37.2843 C24.7749,37.2843 25.2969,37.8063 25.2969,38.4483 M21.3409,38.4483 C21.3409,39.9873 22.5929,41.2403 24.1319,41.2403 C25.6709,41.2403 26.9239,39.9873 26.9239,38.4483 C26.9239,36.9093 25.6709,35.6573 24.1319,35.6573 C22.5929,35.6573 21.3409,36.9093 21.3409,38.4483" id="Fill-6" fill="#5C5C60"></path>
        <polygon id="Fill-7" fill="#5C5C60" points="20.241 29.372 21.539 29.372 21.539 28.075 20.241 28.075"></polygon>
        <polygon id="Fill-8" fill="#5C5C60" points="23.483 29.372 24.78 29.372 24.78 28.075 23.483 28.075"></polygon>
        <polygon id="Fill-9" fill="#5C5C60" points="26.725 29.372 28.022 29.372 28.022 28.075 26.725 28.075"></polygon>
        <path d="M11.8633,30.7383 C11.9733,30.7383 12.0733,30.7183 12.1743,30.6783 C12.2733,30.6383 12.3633,30.5793 12.4333,30.4993 C12.5133,30.4283 12.5733,30.3393 12.6133,30.2383 C12.6533,30.1383 12.6743,30.0393 12.6743,29.9283 C12.6743,29.7093 12.5933,29.4993 12.4333,29.3483 C12.3633,29.2783 12.2733,29.2183 12.1743,29.1783 C11.8733,29.0493 11.5133,29.1293 11.2833,29.3483 C11.2143,29.4283 11.1533,29.5183 11.1133,29.6183 C11.0733,29.7183 11.0443,29.8183 11.0443,29.9283 C11.0443,30.1383 11.1343,30.3483 11.2833,30.4993 C11.4433,30.6583 11.6433,30.7383 11.8633,30.7383" id="Fill-10" fill="#5C5C60"></path>
    </g>
</svg>