<svg width="218" height="60" viewBox="0 0 218 60" fill="none" xmlns="http://www.w3.org/2000/svg">
  <path fill-rule="evenodd" clip-rule="evenodd" d="M25.9965 26.3985C26.1228 26.8778 26.6154 27.125 27.1158 26.9625C31.2184 25.7288 35.3311 24.8845 39.5747 24.2702C40.061 24.2066 40.3271 23.7152 40.1483 23.2221C39.7716 22.1833 39.5811 21.6652 39.196 20.6324C39.0325 20.1938 38.5904 19.9062 38.1378 19.9542C33.9906 20.4539 29.984 21.1919 25.9685 22.3286C25.4457 22.4891 25.1246 23.0613 25.2564 23.5689C25.5498 24.6992 25.6979 25.2649 25.9965 26.3985Z" fill="white"/>
  <path fill-rule="evenodd" clip-rule="evenodd" d="M42.6241 26.9663C42.465 26.5021 42.0328 26.1918 41.6054 26.2465C35.1131 27.0553 28.7912 28.6238 22.7963 31.2162C22.359 31.4183 22.0967 31.9559 22.1884 32.4296C22.4234 33.6412 22.542 34.2476 22.7818 35.4614C22.8843 35.9805 23.3804 36.2195 23.8696 35.9864C29.959 33.2608 36.3939 31.5254 42.9953 30.4907C43.4148 30.4235 43.6288 29.9536 43.4682 29.4695C43.1357 28.4658 42.9668 27.9652 42.6241 26.9663Z" fill="white"/>
  <path fill-rule="evenodd" clip-rule="evenodd" d="M42.6059 33.7323C42.445 33.2367 41.9747 32.9134 41.5278 33.0033C37.4741 33.8628 33.5116 34.8987 29.5864 36.2169C29.0886 36.3955 28.8082 36.9087 28.939 37.3809C29.2511 38.5058 29.4081 39.0691 29.724 40.1974C29.8724 40.7275 30.4811 40.9987 31.0419 40.7899C34.9657 39.4166 38.929 38.2174 42.979 37.2561C43.3674 37.1638 43.5585 36.7186 43.4142 36.2594C43.0953 35.2464 42.9338 34.7409 42.6059 33.7323Z" fill="white"/>
  <path fill-rule="evenodd" clip-rule="evenodd" d="M58.0832 32.6228C58.0832 31.26 57.1961 30.6942 55.448 30.6942H53.3608V34.5512H55.4219C57.1178 34.5512 58.0832 33.8828 58.0832 32.6228ZM55.0306 23.9317C54.4827 23.9317 53.9089 23.9832 53.3608 24.0603V27.4801H55.135C56.7002 27.4801 57.4309 26.8373 57.4309 25.7317C57.4309 24.6774 56.6743 23.9317 55.0306 23.9317ZM62.3616 32.8028C62.3616 35.8112 59.2832 37.8169 55.787 37.8169H49.3691V21.2062C51.5086 20.8976 53.1262 20.6919 55.0306 20.6919C58.5526 20.6919 61.3704 22.3117 61.3704 25.1403C61.3704 26.7601 60.5094 27.8401 58.9701 28.4316C61.3443 29.1001 62.3616 30.5144 62.3616 32.8028Z" fill="white"/>
  <path fill-rule="evenodd" clip-rule="evenodd" d="M71.5547 34.5256V32.3143H70.7981C69.0241 32.3143 67.4065 32.7 67.4065 33.9084C67.4065 34.8341 68.0326 35.1684 69.3111 35.1684C70.3286 35.1684 71.1633 34.8597 71.5547 34.5256ZM75.3898 29.7172V36.4797C73.9811 37.534 71.7112 38.0997 68.6327 38.0997C65.8934 38.0997 63.6235 36.994 63.6235 34.5511C63.6235 30.8741 67.2499 29.9743 71.5547 29.8457C71.4764 28.2514 70.8241 27.84 69.3892 27.84C68.6327 27.84 66.6238 28.1743 66.363 28.1743C65.7367 28.1743 65.2411 27.7886 64.8237 26.6573L64.5104 25.7316C66.128 25.1402 67.7196 24.7288 69.4415 24.7288C73.1984 24.7288 75.3898 26.1173 75.3898 29.7172Z" fill="white"/>
  <path fill-rule="evenodd" clip-rule="evenodd" d="M89.7565 28.663V37.8169H85.8431V30.0256C85.8431 28.663 84.9301 27.9687 83.3386 27.9687C82.7387 27.9687 82.1647 28.0458 81.6688 28.1744V37.8169H77.7295L77.7554 26.3746C79.3991 25.2946 82.0602 24.7031 84.2257 24.7031C87.2261 24.7031 89.7565 26.1687 89.7565 28.663Z" fill="white"/>
  <path fill-rule="evenodd" clip-rule="evenodd" d="M91.4531 31.5428C91.4531 27.0428 94.636 24.6772 98.7581 24.6772C99.9061 24.6772 100.95 24.8315 102.202 25.1144C102.045 26.4001 101.497 27.5314 100.898 28.1742C100.454 28.0456 99.7234 27.9428 99.3062 27.9428C96.671 27.9428 95.6013 29.2799 95.6013 31.3114C95.6013 33.3683 96.5928 34.6283 99.0712 34.6283C99.7497 34.6283 100.532 34.4998 101.497 34.1653L102.202 37.251C100.767 37.8167 99.2799 38.0739 98.1058 38.0739C94.0883 38.0739 91.4531 35.7082 91.4531 31.5428Z" fill="white"/>
  <path fill-rule="evenodd" clip-rule="evenodd" d="M112.638 31.3628C112.638 29.2542 111.594 28.0199 109.768 28.0199C107.994 28.0199 106.898 29.2542 106.898 31.3628C106.898 33.574 107.968 34.7312 109.768 34.7312C111.594 34.7312 112.638 33.574 112.638 31.3628ZM102.959 31.3628C102.959 27.2485 105.776 24.6772 109.768 24.6772C113.916 24.6772 116.577 27.3514 116.577 31.3628C116.577 35.5024 113.89 38.0739 109.768 38.0739C105.62 38.0739 102.959 35.4255 102.959 31.3628Z" fill="white"/>
  <path fill-rule="evenodd" clip-rule="evenodd" d="M118.795 21.309C119.708 20.6404 121.691 20.0747 122.735 20.0747V37.8169H118.795V21.309Z" fill="white"/>
  <path fill-rule="evenodd" clip-rule="evenodd" d="M134.632 31.3628C134.632 29.2542 133.588 28.0199 131.762 28.0199C129.988 28.0199 128.892 29.2542 128.892 31.3628C128.892 33.574 129.962 34.7312 131.762 34.7312C133.588 34.7312 134.632 33.574 134.632 31.3628ZM124.953 31.3628C124.953 27.2485 127.77 24.6772 131.762 24.6772C135.91 24.6772 138.571 27.3514 138.571 31.3628C138.571 35.5024 135.884 38.0739 131.762 38.0739C127.614 38.0739 124.953 35.4255 124.953 31.3628Z" fill="white"/>
  <path fill-rule="evenodd" clip-rule="evenodd" d="M160.513 28.663V37.8169H156.626V30.0256C156.626 28.663 155.739 27.9687 154.173 27.9687C153.443 27.9687 152.738 28.123 152.164 28.3544C152.373 28.9201 152.478 29.5372 152.478 30.2058V37.8169H148.59V30.0256C148.59 28.663 147.703 27.9687 146.138 27.9687C145.538 27.9687 144.964 28.0458 144.468 28.1744V37.8169H140.529L140.555 26.3746C142.12 25.2946 144.572 24.7031 146.634 24.7031C148.277 24.7031 149.686 25.2431 150.703 26.1174C152.034 25.2687 153.886 24.7031 155.452 24.7031C158.295 24.7031 160.513 26.1944 160.513 28.663Z" fill="white"/>
  <path fill-rule="evenodd" clip-rule="evenodd" d="M172.437 31.1829C172.437 28.8172 171.184 27.9687 169.175 27.9687C168.366 27.9687 167.714 28.1229 167.14 28.3801V34.8342C167.845 34.9369 168.523 34.9883 169.149 34.9883C171.445 34.9883 172.437 33.2399 172.437 31.1829ZM176.324 30.6942C176.324 35.374 173.506 38.074 168.914 38.074C166.671 38.074 164.505 37.6626 163.201 37.0713V21.309C164.114 20.6404 166.123 20.0747 167.14 20.0747V26.1687C168.262 25.2174 169.619 24.7031 170.845 24.7031C174.732 24.7031 176.324 27.3515 176.324 30.6942Z" fill="white"/>
  <path fill-rule="evenodd" clip-rule="evenodd" d="M178.542 25.0629C179.09 24.8315 179.768 24.7029 180.525 24.7029C181.281 24.7029 181.933 24.8315 182.481 25.0629V37.8167H178.542V25.0629ZM178.49 21.0001C178.49 19.9203 179.403 19.0203 180.498 19.0203C181.62 19.0203 182.533 19.8945 182.533 21.0001C182.533 22.0544 181.62 22.9801 180.498 22.9801C179.403 22.9801 178.49 22.1058 178.49 21.0001Z" fill="white"/>
  <path fill-rule="evenodd" clip-rule="evenodd" d="M192.369 34.5256V32.3143H191.613C189.839 32.3143 188.221 32.7 188.221 33.9084C188.221 34.8341 188.847 35.1684 190.126 35.1684C191.143 35.1684 191.978 34.8597 192.369 34.5256ZM196.205 29.7172V36.4797C194.796 37.534 192.526 38.0997 189.447 38.0997C186.708 38.0997 184.438 36.994 184.438 34.5511C184.438 30.8741 188.065 29.9743 192.369 29.8457C192.291 28.2514 191.639 27.84 190.204 27.84C189.447 27.84 187.438 28.1743 187.177 28.1743C186.551 28.1743 186.056 27.7886 185.638 26.6573L185.325 25.7316C186.943 25.1402 188.534 24.7288 190.256 24.7288C194.013 24.7288 196.205 26.1173 196.205 29.7172Z" fill="white"/>
</svg>
