<svg width="48" height="48" viewBox="0 0 48 48" fill="none" xmlns="http://www.w3.org/2000/svg">
  <path fill-rule="evenodd" clip-rule="evenodd" d="M24 8C24.5523 8 25 7.55228 25 7C25 6.44772 24.5523 6 24 6C23.4477 6 23 6.44772 23 7C23 7.55228 23.4477 8 24 8ZM24 10C25.6569 10 27 8.65685 27 7C27 5.34315 25.6569 4 24 4C22.3431 4 21 5.34315 21 7C21 8.65685 22.3431 10 24 10Z" fill="#2C2A29"/>
  <path fill-rule="evenodd" clip-rule="evenodd" d="M7 24C7.55228 24 8 23.5523 8 23C8 22.4477 7.55228 22 7 22C6.44772 22 6 22.4477 6 23C6 23.5523 6.44772 24 7 24ZM7 26C8.65685 26 10 24.6569 10 23C10 21.3431 8.65685 20 7 20C5.34315 20 4 21.3431 4 23C4 24.6569 5.34315 26 7 26Z" fill="#2C2A29"/>
  <path fill-rule="evenodd" clip-rule="evenodd" d="M41 24C41.5523 24 42 23.5523 42 23C42 22.4477 41.5523 22 41 22C40.4477 22 40 22.4477 40 23C40 23.5523 40.4477 24 41 24ZM41 26C42.6569 26 44 24.6569 44 23C44 21.3431 42.6569 20 41 20C39.3431 20 38 21.3431 38 23C38 24.6569 39.3431 26 41 26Z" fill="#2C2A29"/>
  <path fill-rule="evenodd" clip-rule="evenodd" d="M8 6H6V8H8V6ZM4 4V10H10V4H4Z" fill="#2C2A29"/>
  <path fill-rule="evenodd" clip-rule="evenodd" d="M42 6H40V8H42V6ZM38 4V10H44V4H38Z" fill="#2C2A29"/>
  <path d="M26 6H38V8H26V6Z" fill="#2C2A29"/>
  <path d="M10 6H22V8H10V6Z" fill="#2C2A29"/>
  <path fill-rule="evenodd" clip-rule="evenodd" d="M22.4004 8.08369C18.8466 8.44141 15.5147 9.97793 12.9353 12.4486C10.3559 14.9192 8.67736 18.1819 8.16698 21.717L6.1875 21.4312C6.76168 17.4542 8.65004 13.7837 11.5519 11.0042C14.4537 8.22477 18.2021 6.49617 22.2001 6.09375L22.4004 8.08369Z" fill="#2C2A29"/>
  <path fill-rule="evenodd" clip-rule="evenodd" d="M34.8611 12.2525C32.2384 9.82788 28.8799 8.3505 25.3203 8.05567L25.4854 6.0625C29.4899 6.39418 33.2683 8.05623 36.2188 10.784C39.1693 13.5117 41.1222 17.1482 41.7666 21.1144L39.7925 21.4352C39.2197 17.9097 37.4838 14.6772 34.8611 12.2525Z" fill="#2C2A29"/>
  <path fill-rule="evenodd" clip-rule="evenodd" d="M30 40H18V42H30V40ZM16 38V44H32V38H16Z" fill="#2C2A29"/>
  <path fill-rule="evenodd" clip-rule="evenodd" d="M24 28C24.5523 28 25 27.5523 25 27C25 26.4477 24.5523 26 24 26C23.4477 26 23 26.4477 23 27C23 27.5523 23.4477 28 24 28ZM24 30C25.6569 30 27 28.6569 27 27C27 25.3431 25.6569 24 24 24C22.3431 24 21 25.3431 21 27C21 28.6569 22.3431 30 24 30Z" fill="#2C2A29"/>
  <path fill-rule="evenodd" clip-rule="evenodd" d="M25 14L25 26L23 26L23 14L25 14Z" fill="#2C2A29"/>
  <path fill-rule="evenodd" clip-rule="evenodd" d="M24.8907 13.5545L23.9962 14.0017L23.1018 13.5545L23.9962 11.7656L24.8907 13.5545ZM23.9962 16.1867C23.4646 17.2017 22.7265 18.5837 21.8688 20.1153C20.2693 22.9715 18.2268 26.3973 16.3195 28.9272C19.6208 32.4106 20.7638 35.2314 21.2266 38.0017H26.7659C27.2287 35.2314 28.3717 32.4106 31.673 28.9272C29.7656 26.3973 27.7232 22.9715 26.1237 20.1153C25.266 18.5837 24.5279 17.2017 23.9962 16.1867ZM23.9962 14.0017L23.1018 13.5545L23.0882 13.5816L23.0465 13.6645C23.0095 13.7377 22.9545 13.8463 22.8829 13.9866C22.7397 14.2671 22.5303 14.6743 22.2664 15.1788C21.7384 16.1882 20.993 17.5858 20.1237 19.1381C18.376 22.259 16.1599 25.9464 14.2154 28.377L13.6562 29.0759L14.2891 29.7088C18.1332 33.5529 19.0308 36.3471 19.3672 39.122L19.4738 40.0017H28.5187L28.6253 39.122C28.9617 36.3471 29.8593 33.5529 33.7034 29.7088L34.3362 29.0759L33.7771 28.377C31.8326 25.9464 29.6165 22.259 27.8688 19.1381C26.9995 17.5858 26.2541 16.1882 25.7261 15.1788C25.4622 14.6743 25.2528 14.2671 25.1096 13.9866C25.038 13.8463 24.983 13.7377 24.946 13.6645L24.9043 13.5816L24.8907 13.5545L23.9962 14.0017Z" fill="#2C2A29"/>
</svg>
