<svg width="40" height="34" viewBox="0 0 40 34" fill="none" xmlns="http://www.w3.org/2000/svg">
  <path fill-rule="evenodd" clip-rule="evenodd" d="M12 6.43809L2.68375 15.5609C1.87364 16.3562 1.87364 17.6438 2.68375 18.4371L12 27.5619L10.5314 29L1.21516 19.8752C-0.405054 18.2906 -0.405054 15.7094 1.21516 14.1228L10.5314 5L12 6.43809Z" fill="#2C2A29"/>
  <path fill-rule="evenodd" clip-rule="evenodd" d="M28 6.43809L37.3163 15.5609C38.1264 16.3562 38.1264 17.6438 37.3163 18.4371L28 27.5619L29.4686 29L38.7848 19.8752C40.4051 18.2906 40.4051 15.7094 38.7848 14.1228L29.4686 5L28 6.43809Z" fill="#2C2A29"/>
  <path fill-rule="evenodd" clip-rule="evenodd" d="M15.0312 32.7578L23.0312 0.757812L24.9715 1.24288L16.9715 33.2429L15.0312 32.7578Z" fill="#2C2A29"/>
</svg>
