<svg width="48" height="48" viewBox="0 0 48 48" fill="none" xmlns="http://www.w3.org/2000/svg">
<path fill-rule="evenodd" clip-rule="evenodd" d="M25.0886 16.1486C22.3908 15.4552 20 17.4461 20 20.0007C20 20.553 19.5523 21.0007 19 21.0007C18.4477 21.0007 18 20.553 18 20.0007C18 16.156 21.6081 13.1872 25.5894 14.2123L25.5934 14.2133L25.5934 14.2133C27.6229 14.7449 29.2758 16.3978 29.8074 18.4273L29.8083 18.4311L29.8083 18.4311C30.5961 21.4865 29.0114 24.298 26.5197 25.4484C25.5944 25.8766 25 26.8987 25 28.0607V29.0007C25 29.553 24.5523 30.0007 24 30.0007C23.4477 30.0007 23 29.553 23 29.0007V28.0607C23 26.2629 23.9255 24.445 25.6801 23.6331L25.6809 23.6327C27.3483 22.8632 28.4032 20.9958 27.8721 18.9322C27.5233 17.6032 26.4176 16.4975 25.0886 16.1486Z" fill="#FF7F37"/>
<path fill-rule="evenodd" clip-rule="evenodd" d="M23.9998 4C27.7466 3.99936 31.4183 5.05078 34.5968 7.03455C37.7753 9.01833 40.3329 11.8547 41.9784 15.2208C42.221 15.717 42.0154 16.3158 41.5192 16.5584C41.023 16.801 40.4242 16.5954 40.1816 16.0992C38.7006 13.0696 36.3986 10.5167 33.5378 8.73122C30.6771 6.94574 27.3724 5.99942 24.0002 6C23.4479 6.00009 23.0001 5.55246 23 5.00017C22.9999 4.44789 23.4475 4.0001 23.9998 4Z" fill="#FDDA24"/>
<path fill-rule="evenodd" clip-rule="evenodd" d="M40.6435 14.7564C41.1406 14.5158 41.7387 14.7236 41.9794 15.2207C43.262 17.8701 43.9993 20.8385 43.9993 23.9963M40.6435 14.7564C40.1464 14.9971 39.9386 15.5951 40.1792 16.0922L40.6435 14.7564ZM40.1792 16.0922C41.3366 18.4828 41.9993 21.1544 41.9993 23.9965L40.1792 16.0922ZM43.9993 23.9965C44 27.7032 42.9709 31.3372 41.0267 34.4931C39.0826 37.6491 36.2998 40.2029 32.9889 41.8697C32.4956 42.118 31.8944 41.9194 31.6461 41.4261C31.3977 40.9328 31.5963 40.3316 32.0896 40.0833C35.0695 38.5832 37.5741 36.2847 39.3239 33.4442C41.0737 30.6037 41.9999 27.3329 41.9993 23.9967V23.9965" fill="#00C389"/>
<path fill-rule="evenodd" clip-rule="evenodd" d="M10.004 36.9022C10.3902 36.5074 11.0234 36.5005 11.4181 36.8868C14.7784 40.1747 19.2954 42.0114 23.9967 42.0016L23.9987 42.0016C26.9212 42.0016 29.6661 41.3188 32.086 40.0899C32.5784 39.8399 33.1803 40.0364 33.4304 40.5288C33.6804 41.0212 33.484 41.6231 32.9915 41.8732C30.2917 43.2442 27.2369 44.0014 23.9997 44.0016C18.7746 44.0122 13.7542 41.9706 10.0194 38.3163C9.62463 37.9301 9.61774 37.297 10.004 36.9022ZM23.9997 44.0016C23.9994 44.0016 23.9991 44.0016 23.9987 44.0016V43.0016L24.0008 44.0016C24.0005 44.0016 24.0001 44.0016 23.9997 44.0016Z" fill="#00CCEA"/>
<path fill-rule="evenodd" clip-rule="evenodd" d="M7.35732 14.7572C7.85399 14.9987 8.06083 15.5971 7.81931 16.0938C6.62192 18.5561 5.99982 21.2584 6 23.9964V23.9965C6 25.2441 6.13215 26.4576 6.36025 27.6186C7.08877 31.1343 8.85009 34.3525 11.4187 36.8611C11.8138 37.2469 11.8213 37.8801 11.4354 38.2752C11.0495 38.6703 10.4164 38.6778 10.0213 38.2919C7.16652 35.5038 5.20939 31.9267 4.40075 28.0191L4.39876 28.0095L4.39881 28.0095C4.14749 26.732 4 25.3872 4 23.9965M7.35732 14.7572C6.86064 14.5156 6.26222 14.7225 6.02069 15.2192L7.35732 14.7572ZM6.02069 15.2192C4.69078 17.954 3.99981 20.9554 4 23.9965L6.02069 15.2192Z" fill="#9063CD"/>
<path fill-rule="evenodd" clip-rule="evenodd" d="M6.02429 15.2196C9.28564 8.57068 16.1057 4 24.0021 4C24.5544 4 25.0021 4.44772 25.0021 5C25.0021 5.55228 24.5544 6 24.0021 6C16.8985 6 10.7586 10.1093 7.81991 16.1004C7.57669 16.5962 6.97757 16.801 6.48172 16.5578C5.98587 16.3146 5.78107 15.7155 6.02429 15.2196Z" fill="#F5B6CD"/>
</svg>
