<svg width="13" height="20" viewBox="0 0 13 20" fill="none" xmlns="http://www.w3.org/2000/svg">
  <path fill-rule="evenodd" clip-rule="evenodd" d="M7 0.5V7.5H3.5C1.567 7.5 0 5.933 0 4C0 2.067 1.567 0.5 3.5 0.5H7ZM3.5 1.5C2.11929 1.5 1 2.61929 1 4C1 5.38071 2.11929 6.5 3.5 6.5H6V1.5H3.5Z" fill="white"/>
  <path fill-rule="evenodd" clip-rule="evenodd" d="M6 0.5V7.5H9.5C11.433 7.5 13 5.933 13 4C13 2.067 11.433 0.5 9.5 0.5H6ZM9.5 1.5C10.8807 1.5 12 2.61929 12 4C12 5.38071 10.8807 6.5 9.5 6.5H7V1.5H9.5Z" fill="white"/>
  <path fill-rule="evenodd" clip-rule="evenodd" d="M7 6.5V13.5H3.5C1.567 13.5 0 11.933 0 10C0 8.067 1.567 6.5 3.5 6.5H7ZM3.5 7.5C2.11929 7.5 1 8.61929 1 10C1 11.3807 2.11929 12.5 3.5 12.5H6V7.5H3.5Z" fill="white"/>
  <path fill-rule="evenodd" clip-rule="evenodd" d="M9.5 13.5C11.433 13.5 13 11.933 13 10C13 8.067 11.433 6.5 9.5 6.5C7.567 6.5 6 8.067 6 10C6 11.933 7.567 13.5 9.5 13.5ZM9.5 7.5C10.8807 7.5 12 8.61929 12 10C12 11.3807 10.8807 12.5 9.5 12.5C8.11929 12.5 7 11.3807 7 10C7 8.61929 8.11929 7.5 9.5 7.5Z" fill="white"/>
  <path fill-rule="evenodd" clip-rule="evenodd" d="M7 12.5V15.8529C7 17.8672 5.36716 19.5 3.35294 19.5C1.50116 19.5 0 17.9988 0 16.1471V16C0 14.067 1.567 12.5 3.5 12.5H7ZM3.5 13.5C2.11929 13.5 1 14.6193 1 16V16.1471C1 17.4466 2.05345 18.5 3.35294 18.5C4.81487 18.5 6 17.3149 6 15.8529V13.5H3.5Z" fill="white"/>
</svg>
