<svg width="24" height="24" viewBox="0 0 24 24" fill="none" xmlns="http://www.w3.org/2000/svg">
<path d="M8.79862 8.32893L11.0003 2.70242C11.2262 2.12486 11.8572 1.84816 12.4095 2.08439C12.6779 2.19915 12.8909 2.42184 13.0006 2.70242L15.2012 8.32893L21.0003 8.77941C21.5529 8.8223 21.9775 9.29263 22 9.85784L21.9979 9.98981C21.9765 10.2921 21.8397 10.5727 21.6184 10.7686L17.1798 14.6957L18.5628 20.6013C18.6946 21.1642 18.398 21.7317 17.8908 21.9287L17.7701 21.9674C17.4885 22.0395 17.191 21.9903 16.9445 21.8307L11.9994 18.631L7.0564 21.8307C6.58518 22.1357 5.97727 22.0161 5.64135 21.5727L5.56885 21.4646C5.41627 21.2068 5.36915 20.8958 5.43808 20.6013L6.82003 14.6957L2.38249 10.7686C1.962 10.3964 1.88133 9.76035 2.17467 9.29007L2.25582 9.17621C2.44313 8.94483 2.7115 8.80185 3.00063 8.77941L8.79862 8.32893Z" fill="#2C2A29"/>
</svg>
