<svg width="80" height="60" viewBox="0 0 80 60" fill="none" xmlns="http://www.w3.org/2000/svg">
<rect width="80" height="60" rx="4" fill="white"/>
<path d="M21.3404 20.3528C22.0468 19.4502 22.5261 18.2384 22.3997 17C21.3656 17.0525 20.1037 17.6969 19.3731 18.6001C18.7172 19.3736 18.1366 20.6362 18.2879 21.8227C19.4487 21.9255 20.6085 21.23 21.3404 20.3528Z" fill="#2C2A29"/>
<path d="M22.386 22.0577C20.7003 21.9551 19.2669 23.035 18.4619 23.035C17.6564 23.035 16.4236 22.1093 15.0903 22.1343C13.3548 22.1603 11.7445 23.1626 10.8638 24.7568C9.05246 27.9459 10.3858 32.6764 12.1473 35.2738C13.0027 36.5588 14.0336 37.9736 15.392 37.9228C16.6755 37.8714 17.1785 37.0739 18.7386 37.0739C20.2975 37.0739 20.7507 37.9228 22.1093 37.8971C23.5182 37.8714 24.399 36.6115 25.2544 35.3252C26.2358 33.8604 26.6375 32.446 26.6627 32.3684C26.6375 32.3426 23.946 31.2879 23.921 28.1253C23.8956 25.4773 26.0341 24.2177 26.1348 24.1396C24.9271 22.3151 23.0402 22.1093 22.386 22.0577Z" fill="#2C2A29"/>
<path d="M37.066 18.4688C40.73 18.4688 43.2813 21.0486 43.2813 24.8048C43.2813 28.5743 40.6775 31.1676 36.9741 31.1676H32.9173V37.7576H29.9863V18.4688H37.066ZM32.9173 28.6545H36.2805C38.8323 28.6545 40.2847 27.2511 40.2847 24.8182C40.2847 22.3855 38.8323 20.9953 36.2936 20.9953H32.9173V28.6545Z" fill="#2C2A29"/>
<path d="M44.0469 33.761C44.0469 31.3012 45.892 29.7908 49.1638 29.6036L52.9323 29.3765V28.2938C52.9323 26.7298 51.8984 25.7941 50.1714 25.7941C48.5353 25.7941 47.5145 26.596 47.2661 27.8527H44.5966C44.7536 25.3128 46.8734 23.4414 50.2759 23.4414C53.6128 23.4414 55.7456 25.246 55.7456 28.0664V37.7577H53.0368V35.4451H52.9716C52.1735 37.0092 50.4329 37.9982 48.6271 37.9982C45.9314 37.9982 44.0469 36.2872 44.0469 33.761ZM52.9323 32.4911V31.3817L49.5429 31.5954C47.8548 31.7158 46.8996 32.4777 46.8996 33.6808C46.8996 34.9104 47.8941 35.7125 49.4121 35.7125C51.388 35.7125 52.9323 34.3223 52.9323 32.4911Z" fill="#2C2A29"/>
<path d="M58.3024 42.9308V40.5914C58.5114 40.6448 58.9824 40.6448 59.2182 40.6448C60.5267 40.6448 61.2334 40.0835 61.665 38.6399C61.665 38.6131 61.9139 37.7844 61.9139 37.771L56.9414 23.6953H60.0032L63.4844 35.1377H63.5364L67.0177 23.6953H70.0012L64.8449 38.4927C63.6677 41.9015 62.3067 42.9976 59.4539 42.9976C59.2182 42.9976 58.5114 42.9707 58.3024 42.9308Z" fill="#2C2A29"/>
</svg>
