<svg width="851" height="233" viewBox="0 0 851 233" fill="none" xmlns="http://www.w3.org/2000/svg">
  <g filter="url(#filter0_d)">
    <rect width="835" height="60" transform="matrix(-1 0 0 1 843 85)" fill="white"/>
  </g>
  <path fill-rule="evenodd" clip-rule="evenodd" d="M29.1006 100.707V99.707H51.3136V100.707H29.1006ZM29.1006 107.707V106.707H51.3136V107.707H29.1006ZM29.1006 113.707V114.707H51.3136V113.707H29.1006Z" fill="#2C2A29"/>
  <path d="M28.9688 136L26.0625 128.406H26.0156C26.0703 129.008 26.0977 129.723 26.0977 130.551V136H25.1777V127.434H26.6777L29.3906 134.5H29.4375L32.1738 127.434H33.6621V136H32.666V130.48C32.666 129.848 32.6934 129.16 32.748 128.418H32.7012L29.7715 136H28.9688ZM38.4126 136.117C37.4633 136.117 36.7133 135.828 36.1626 135.25C35.6157 134.672 35.3422 133.869 35.3422 132.842C35.3422 131.807 35.5961 130.984 36.104 130.375C36.6157 129.766 37.3012 129.461 38.1606 129.461C38.9653 129.461 39.602 129.727 40.0708 130.258C40.5395 130.785 40.7739 131.482 40.7739 132.35V132.965H36.3501C36.3696 133.719 36.559 134.291 36.9184 134.682C37.2817 135.072 37.7915 135.268 38.4477 135.268C39.1391 135.268 39.8227 135.123 40.4985 134.834V135.701C40.1547 135.85 39.8286 135.955 39.52 136.018C39.2153 136.084 38.8461 136.117 38.4126 136.117ZM38.1489 130.275C37.6333 130.275 37.2211 130.443 36.9126 130.779C36.6079 131.115 36.4282 131.58 36.3735 132.174H39.7309C39.7309 131.561 39.5942 131.092 39.3208 130.768C39.0473 130.439 38.6567 130.275 38.1489 130.275ZM46.661 136V131.846C46.661 131.322 46.5419 130.932 46.3036 130.674C46.0653 130.416 45.6923 130.287 45.1845 130.287C44.5126 130.287 44.0204 130.469 43.7079 130.832C43.3954 131.195 43.2392 131.795 43.2392 132.631V136H42.2665V129.578H43.0575L43.2157 130.457H43.2626C43.4618 130.141 43.7411 129.896 44.1005 129.725C44.4599 129.549 44.8603 129.461 45.3017 129.461C46.0751 129.461 46.6571 129.648 47.0478 130.023C47.4384 130.395 47.6337 130.99 47.6337 131.811V136H46.661ZM50.3802 129.578V133.744C50.3802 134.268 50.4994 134.658 50.7377 134.916C50.9759 135.174 51.349 135.303 51.8568 135.303C52.5287 135.303 53.0189 135.119 53.3275 134.752C53.64 134.385 53.7963 133.785 53.7963 132.953V129.578H54.7689V136H53.9662L53.8256 135.139H53.7728C53.5736 135.455 53.2963 135.697 52.9408 135.865C52.5892 136.033 52.1869 136.117 51.7338 136.117C50.9525 136.117 50.3666 135.932 49.9759 135.561C49.5892 135.189 49.3959 134.596 49.3959 133.779V129.578H50.3802ZM51.3998 128.582C51.5873 128.34 51.7884 128.047 52.0033 127.703C52.222 127.359 52.3939 127.061 52.5189 126.807H53.7025V126.93C53.5306 127.184 53.2748 127.496 52.9349 127.867C52.5951 128.238 52.3002 128.525 52.0502 128.729H51.3998V128.582Z" fill="#2C2A29"/>
  <path fill-rule="evenodd" clip-rule="evenodd" d="M97.9963 113.399C98.1225 113.878 98.6151 114.125 99.1155 113.963C103.218 112.729 107.331 111.884 111.574 111.27C112.061 111.207 112.327 110.715 112.148 110.222C111.771 109.183 111.581 108.665 111.196 107.632C111.032 107.194 110.59 106.906 110.138 106.954C105.99 107.454 101.984 108.192 97.9683 109.329C97.4454 109.489 97.1243 110.061 97.2562 110.569C97.5496 111.699 97.6976 112.265 97.9963 113.399Z" fill="#2C2A29"/>
  <path fill-rule="evenodd" clip-rule="evenodd" d="M114.624 113.966C114.465 113.502 114.033 113.192 113.605 113.246C107.113 114.055 100.791 115.624 94.796 118.216C94.3588 118.418 94.0965 118.956 94.1881 119.43C94.4231 120.641 94.5417 121.248 94.7816 122.461C94.8841 122.981 95.3801 123.22 95.8694 122.986C101.959 120.261 108.394 118.525 114.995 117.491C115.415 117.424 115.629 116.954 115.468 116.47C115.135 115.466 114.967 114.965 114.624 113.966Z" fill="#2C2A29"/>
  <path fill-rule="evenodd" clip-rule="evenodd" d="M114.606 120.732C114.445 120.237 113.975 119.913 113.528 120.003C109.474 120.863 105.512 121.899 101.587 123.217C101.089 123.395 100.808 123.909 100.939 124.381C101.251 125.506 101.408 126.069 101.724 127.197C101.873 127.727 102.481 127.999 103.042 127.79C106.966 126.417 110.929 125.217 114.979 124.256C115.368 124.164 115.559 123.719 115.414 123.259C115.096 122.246 114.934 121.741 114.606 120.732Z" fill="#2C2A29"/>
  <path fill-rule="evenodd" clip-rule="evenodd" d="M130.083 119.623C130.083 118.26 129.196 117.694 127.448 117.694H125.361V121.551H127.422C129.118 121.551 130.083 120.883 130.083 119.623ZM127.031 110.932C126.483 110.932 125.909 110.983 125.361 111.06V114.48H127.135C128.7 114.48 129.431 113.837 129.431 112.732C129.431 111.677 128.674 110.932 127.031 110.932ZM134.362 119.803C134.362 122.811 131.283 124.817 127.787 124.817H121.369V108.206C123.509 107.898 125.126 107.692 127.031 107.692C130.553 107.692 133.37 109.312 133.37 112.14C133.37 113.76 132.509 114.84 130.97 115.432C133.344 116.1 134.362 117.514 134.362 119.803Z" fill="#2C2A29"/>
  <path fill-rule="evenodd" clip-rule="evenodd" d="M143.554 121.526V119.314H142.798C141.024 119.314 139.406 119.7 139.406 120.908C139.406 121.834 140.032 122.168 141.311 122.168C142.328 122.168 143.163 121.86 143.554 121.526ZM147.389 116.717V123.48C145.981 124.534 143.711 125.1 140.632 125.1C137.893 125.1 135.623 123.994 135.623 121.551C135.623 117.874 139.249 116.974 143.554 116.846C143.476 115.251 142.824 114.84 141.389 114.84C140.632 114.84 138.623 115.174 138.363 115.174C137.736 115.174 137.241 114.789 136.823 113.657L136.51 112.732C138.128 112.14 139.719 111.729 141.441 111.729C145.198 111.729 147.389 113.117 147.389 116.717Z" fill="#2C2A29"/>
  <path fill-rule="evenodd" clip-rule="evenodd" d="M161.756 115.663V124.817H157.843V117.026C157.843 115.663 156.93 114.969 155.339 114.969C154.739 114.969 154.165 115.046 153.669 115.174V124.817H149.729L149.755 113.375C151.399 112.295 154.06 111.703 156.226 111.703C159.226 111.703 161.756 113.169 161.756 115.663Z" fill="#2C2A29"/>
  <path fill-rule="evenodd" clip-rule="evenodd" d="M163.453 118.543C163.453 114.043 166.636 111.677 170.758 111.677C171.906 111.677 172.95 111.832 174.202 112.114C174.045 113.4 173.497 114.531 172.898 115.174C172.454 115.046 171.723 114.943 171.306 114.943C168.671 114.943 167.601 116.28 167.601 118.311C167.601 120.368 168.593 121.628 171.071 121.628C171.75 121.628 172.532 121.5 173.497 121.165L174.202 124.251C172.767 124.817 171.28 125.074 170.106 125.074C166.088 125.074 163.453 122.708 163.453 118.543Z" fill="#2C2A29"/>
  <path fill-rule="evenodd" clip-rule="evenodd" d="M184.638 118.363C184.638 116.254 183.594 115.02 181.768 115.02C179.994 115.02 178.898 116.254 178.898 118.363C178.898 120.574 179.968 121.731 181.768 121.731C183.594 121.731 184.638 120.574 184.638 118.363ZM174.959 118.363C174.959 114.249 177.777 111.677 181.768 111.677C185.916 111.677 188.577 114.351 188.577 118.363C188.577 122.502 185.89 125.074 181.768 125.074C177.62 125.074 174.959 122.425 174.959 118.363Z" fill="#2C2A29"/>
  <path fill-rule="evenodd" clip-rule="evenodd" d="M190.795 108.309C191.708 107.64 193.691 107.075 194.734 107.075V124.817H190.795V108.309Z" fill="#2C2A29"/>
  <path fill-rule="evenodd" clip-rule="evenodd" d="M206.631 118.363C206.631 116.254 205.588 115.02 203.762 115.02C201.987 115.02 200.892 116.254 200.892 118.363C200.892 120.574 201.961 121.731 203.762 121.731C205.588 121.731 206.631 120.574 206.631 118.363ZM196.952 118.363C196.952 114.249 199.77 111.677 203.762 111.677C207.91 111.677 210.571 114.351 210.571 118.363C210.571 122.502 207.884 125.074 203.762 125.074C199.613 125.074 196.952 122.425 196.952 118.363Z" fill="#2C2A29"/>
  <path fill-rule="evenodd" clip-rule="evenodd" d="M232.513 115.663V124.817H228.625V117.026C228.625 115.663 227.739 114.969 226.173 114.969C225.443 114.969 224.738 115.123 224.164 115.354C224.373 115.92 224.477 116.537 224.477 117.206V124.817H220.59V117.026C220.59 115.663 219.703 114.969 218.137 114.969C217.538 114.969 216.964 115.046 216.468 115.174V124.817H212.528L212.554 113.375C214.12 112.295 216.572 111.703 218.633 111.703C220.277 111.703 221.686 112.243 222.703 113.117C224.034 112.269 225.886 111.703 227.451 111.703C230.295 111.703 232.513 113.194 232.513 115.663Z" fill="#2C2A29"/>
  <path fill-rule="evenodd" clip-rule="evenodd" d="M244.437 118.183C244.437 115.817 243.184 114.969 241.176 114.969C240.367 114.969 239.715 115.123 239.141 115.38V121.834C239.845 121.937 240.524 121.988 241.15 121.988C243.445 121.988 244.437 120.24 244.437 118.183ZM248.324 117.694C248.324 122.374 245.507 125.074 240.915 125.074C238.671 125.074 236.506 124.663 235.201 124.071V108.309C236.114 107.64 238.123 107.075 239.141 107.075V113.169C240.263 112.217 241.619 111.703 242.845 111.703C246.733 111.703 248.324 114.352 248.324 117.694Z" fill="#2C2A29"/>
  <path fill-rule="evenodd" clip-rule="evenodd" d="M250.542 112.063C251.09 111.832 251.768 111.703 252.524 111.703C253.281 111.703 253.933 111.832 254.481 112.063V124.817H250.542V112.063ZM250.489 108C250.489 106.92 251.402 106.02 252.498 106.02C253.62 106.02 254.533 106.895 254.533 108C254.533 109.054 253.62 109.98 252.498 109.98C251.402 109.98 250.489 109.106 250.489 108Z" fill="#2C2A29"/>
  <path fill-rule="evenodd" clip-rule="evenodd" d="M264.369 121.526V119.314H263.612C261.838 119.314 260.221 119.7 260.221 120.908C260.221 121.834 260.847 122.168 262.125 122.168C263.143 122.168 263.978 121.86 264.369 121.526ZM268.204 116.717V123.48C266.795 124.534 264.526 125.1 261.447 125.1C258.707 125.1 256.438 123.994 256.438 121.551C256.438 117.874 260.064 116.974 264.369 116.846C264.291 115.251 263.638 114.84 262.203 114.84C261.447 114.84 259.438 115.174 259.177 115.174C258.551 115.174 258.055 114.789 257.638 113.657L257.325 112.732C258.942 112.14 260.534 111.729 262.256 111.729C266.013 111.729 268.204 113.117 268.204 116.717Z" fill="#2C2A29"/>
  <path d="M306 97.5C306 97.2239 306.224 97 306.5 97C306.776 97 307 97.2239 307 97.5V136.5C307 136.776 306.776 137 306.5 137C306.224 137 306 136.776 306 136.5V97.5Z" fill="#CCCCCC"/>
  <path d="M335.28 110.96V124C335.053 124.067 334.853 124.1 334.68 124.1C334.507 124.1 334.307 124.067 334.08 124L326.04 113L326.08 114.74V124H324.88V110.96C325.053 110.907 325.253 110.88 325.48 110.88C325.707 110.88 325.907 110.907 326.08 110.96L334.12 122.04L334.08 120.62V110.96H335.28ZM342.308 124.2C341.375 124.2 340.555 123.987 339.848 123.56C339.142 123.133 338.595 122.533 338.208 121.76C337.822 120.987 337.628 120.087 337.628 119.06C337.628 118.047 337.822 117.147 338.208 116.36C338.595 115.573 339.142 114.96 339.848 114.52C340.555 114.08 341.375 113.86 342.308 113.86C343.242 113.86 344.062 114.08 344.768 114.52C345.475 114.96 346.022 115.573 346.408 116.36C346.795 117.147 346.988 118.047 346.988 119.06C346.988 120.087 346.795 120.993 346.408 121.78C346.022 122.553 345.475 123.153 344.768 123.58C344.062 123.993 343.242 124.2 342.308 124.2ZM342.308 123.14C343.402 123.14 344.255 122.787 344.868 122.08C345.495 121.373 345.808 120.367 345.808 119.06C345.808 117.767 345.495 116.753 344.868 116.02C344.255 115.287 343.402 114.92 342.308 114.92C341.215 114.92 340.355 115.287 339.728 116.02C339.115 116.753 338.808 117.767 338.808 119.06C338.808 120.367 339.115 121.373 339.728 122.08C340.342 122.787 341.202 123.14 342.308 123.14ZM359.682 113.96C360.788 113.96 361.622 114.247 362.182 114.82C362.742 115.38 363.022 116.247 363.022 117.42V124H361.862V117.68C361.862 116.72 361.662 116.033 361.262 115.62C360.862 115.207 360.175 115 359.202 115C358.722 115 358.248 115.073 357.782 115.22C357.315 115.353 356.908 115.52 356.562 115.72C356.735 116.187 356.822 116.753 356.822 117.42V124H355.662V117.68C355.662 116.747 355.462 116.067 355.062 115.64C354.675 115.213 353.982 115 352.982 115C352.542 115 352.095 115.073 351.642 115.22C351.202 115.353 350.815 115.52 350.482 115.72V124H349.322V114.08C349.948 114.08 350.315 114.353 350.422 114.9C350.795 114.633 351.255 114.413 351.802 114.24C352.348 114.053 352.902 113.96 353.462 113.96C354.782 113.96 355.708 114.347 356.242 115.12C356.575 114.813 357.062 114.547 357.702 114.32C358.342 114.08 359.002 113.96 359.682 113.96ZM370.14 113.94C371.54 113.94 372.567 114.367 373.22 115.22C373.887 116.06 374.22 117.16 374.22 118.52C374.22 120.32 373.833 121.72 373.06 122.72C372.3 123.707 371.26 124.2 369.94 124.2C369.38 124.2 368.84 124.127 368.32 123.98C367.813 123.82 367.367 123.627 366.98 123.4C366.793 123.8 366.427 124 365.88 124V110.6C366 110.493 366.173 110.4 366.4 110.32C366.64 110.24 366.853 110.2 367.04 110.2V114.98C367.467 114.66 367.96 114.407 368.52 114.22C369.093 114.033 369.633 113.94 370.14 113.94ZM369.48 123.18C370.733 123.18 371.64 122.74 372.2 121.86C372.76 120.98 373.04 119.867 373.04 118.52C373.04 116.173 371.92 115 369.68 115C369.2 115 368.727 115.067 368.26 115.2C367.807 115.32 367.4 115.487 367.04 115.7V122.6C367.453 122.8 367.88 122.947 368.32 123.04C368.76 123.133 369.147 123.18 369.48 123.18ZM380.94 113.96C381.02 114.093 381.06 114.273 381.06 114.5C381.06 114.74 381.02 114.953 380.94 115.14C380.7 115.1 380.46 115.08 380.22 115.08C379.807 115.08 379.34 115.22 378.82 115.5C378.314 115.767 377.94 116.107 377.7 116.52V124H376.54V114.08C377.007 114.08 377.314 114.2 377.46 114.44C377.62 114.667 377.7 114.973 377.7 115.36C378.06 114.88 378.52 114.527 379.08 114.3C379.654 114.073 380.214 113.96 380.76 113.96H380.94ZM382.758 119.28V119.34C382.758 120.5 383.051 121.433 383.638 122.14C384.238 122.833 385.071 123.18 386.138 123.18C386.618 123.18 387.124 123.127 387.658 123.02C388.204 122.9 388.664 122.753 389.038 122.58C389.304 122.767 389.464 123.073 389.518 123.5C388.424 123.98 387.264 124.22 386.038 124.22C384.638 124.22 383.544 123.773 382.758 122.88C381.971 121.987 381.578 120.807 381.578 119.34C381.578 117.593 381.971 116.247 382.758 115.3C383.558 114.34 384.638 113.86 385.998 113.86C387.184 113.86 388.124 114.26 388.818 115.06C389.511 115.847 389.858 116.92 389.858 118.28C389.858 118.587 389.824 118.92 389.758 119.28H382.758ZM385.858 114.84C385.018 114.84 384.324 115.127 383.778 115.7C383.244 116.273 382.918 117.16 382.798 118.36H388.598C388.611 118.32 388.618 118.253 388.618 118.16C388.618 117.067 388.371 116.24 387.878 115.68C387.384 115.12 386.711 114.84 385.858 114.84Z" fill="#2C2A29"/>
  <path d="M435 95.5C435 95.2239 435.224 95 435.5 95C435.776 95 436 95.2239 436 95.5V134.5C436 134.776 435.776 135 435.5 135C435.224 135 435 134.776 435 134.5V95.5Z" fill="white"/>
  <path d="M452 95.5C452 95.2239 452.224 95 452.5 95C452.776 95 453 95.2239 453 95.5V134.5C453 134.776 452.776 135 452.5 135C452.224 135 452 134.776 452 134.5V95.5Z" fill="white"/>
  <path d="M469 95.5C469 95.2239 469.224 95 469.5 95C469.776 95 470 95.2239 470 95.5V134.5C470 134.776 469.776 135 469.5 135C469.224 135 469 134.776 469 134.5V95.5Z" fill="white"/>
  <path d="M486 95.5C486 95.2239 486.224 95 486.5 95C486.776 95 487 95.2239 487 95.5V134.5C487 134.776 486.776 135 486.5 135C486.224 135 486 134.776 486 134.5V95.5Z" fill="white"/>
  <path fill-rule="evenodd" clip-rule="evenodd" d="M514 105.702L511.799 111.329L506.001 111.779C505.712 111.802 505.443 111.945 505.256 112.176L505.175 112.29C504.881 112.76 504.962 113.396 505.382 113.769L509.82 117.696L508.438 123.601C508.369 123.896 508.416 124.207 508.569 124.465L508.641 124.573C508.977 125.016 509.585 125.136 510.056 124.831L514.999 121.631L519.945 124.831C520.191 124.99 520.489 125.04 520.77 124.967L520.891 124.929C521.398 124.732 521.695 124.164 521.563 123.601L520.18 117.696L524.618 113.769C524.84 113.573 524.976 113.292 524.998 112.99L525 112.858C524.978 112.293 524.553 111.822 524 111.779L518.201 111.329L516.001 105.702C515.891 105.422 515.678 105.199 515.41 105.084C514.857 104.848 514.226 105.125 514 105.702ZM512.546 112.404L515 106.13L517.455 112.404L523.92 112.906L518.972 117.286L520.513 123.87L515 120.302L509.488 123.87L511.029 117.286L506.081 112.906L512.546 112.404Z" fill="#2C2A29"/>
  <path d="M532.374 112V102.006H533.536V112H532.374ZM538.333 111.2C538.534 111.2 538.727 111.187 538.914 111.159C539.101 111.127 539.249 111.095 539.359 111.063V111.932C539.236 111.991 539.053 112.039 538.812 112.075C538.575 112.116 538.361 112.137 538.169 112.137C536.72 112.137 535.995 111.373 535.995 109.847V105.39H534.922V104.843L535.995 104.371L536.474 102.771H537.13V104.508H539.304V105.39H537.13V109.799C537.13 110.25 537.237 110.596 537.451 110.838C537.666 111.079 537.96 111.2 538.333 111.2ZM543.828 112.137C542.72 112.137 541.845 111.799 541.203 111.125C540.565 110.451 540.246 109.514 540.246 108.315C540.246 107.108 540.542 106.148 541.134 105.438C541.731 104.727 542.531 104.371 543.534 104.371C544.472 104.371 545.215 104.681 545.762 105.301C546.309 105.916 546.582 106.729 546.582 107.741V108.459H541.421C541.444 109.339 541.665 110.006 542.084 110.462C542.508 110.918 543.103 111.146 543.869 111.146C544.675 111.146 545.473 110.977 546.261 110.64V111.651C545.86 111.825 545.48 111.948 545.12 112.021C544.764 112.098 544.333 112.137 543.828 112.137ZM543.52 105.321C542.918 105.321 542.438 105.517 542.078 105.909C541.722 106.301 541.512 106.843 541.449 107.536H545.366C545.366 106.821 545.206 106.274 544.887 105.896C544.568 105.513 544.112 105.321 543.52 105.321ZM557.874 112V107.126C557.874 106.529 557.746 106.082 557.491 105.786C557.236 105.485 556.839 105.335 556.301 105.335C555.595 105.335 555.073 105.538 554.736 105.943C554.399 106.349 554.23 106.973 554.23 107.816V112H553.095V107.126C553.095 106.529 552.968 106.082 552.712 105.786C552.457 105.485 552.059 105.335 551.516 105.335C550.805 105.335 550.283 105.549 549.951 105.978C549.623 106.401 549.459 107.099 549.459 108.069V112H548.324V104.508H549.247L549.431 105.533H549.486C549.7 105.169 550.001 104.884 550.388 104.679C550.78 104.474 551.218 104.371 551.701 104.371C552.872 104.371 553.638 104.795 553.998 105.643H554.052C554.276 105.251 554.599 104.941 555.023 104.713C555.447 104.485 555.93 104.371 556.472 104.371C557.32 104.371 557.953 104.59 558.373 105.027C558.796 105.46 559.008 106.155 559.008 107.112V112H557.874Z" fill="#292929"/>
  <path d="M532.178 129V120.434H533.174V129H532.178ZM537.286 128.314C537.457 128.314 537.623 128.303 537.784 128.279C537.944 128.252 538.071 128.225 538.165 128.197V128.941C538.059 128.992 537.903 129.033 537.696 129.064C537.493 129.1 537.309 129.117 537.145 129.117C535.903 129.117 535.282 128.463 535.282 127.154V123.334H534.362V122.865L535.282 122.461L535.692 121.09H536.254V122.578H538.118V123.334H536.254V127.113C536.254 127.5 536.346 127.797 536.53 128.004C536.713 128.211 536.965 128.314 537.286 128.314ZM541.995 129.117C541.046 129.117 540.296 128.828 539.745 128.25C539.198 127.672 538.925 126.869 538.925 125.842C538.925 124.807 539.179 123.984 539.686 123.375C540.198 122.766 540.884 122.461 541.743 122.461C542.548 122.461 543.184 122.727 543.653 123.258C544.122 123.785 544.356 124.482 544.356 125.35V125.965H539.933C539.952 126.719 540.142 127.291 540.501 127.682C540.864 128.072 541.374 128.268 542.03 128.268C542.722 128.268 543.405 128.123 544.081 127.834V128.701C543.737 128.85 543.411 128.955 543.102 129.018C542.798 129.084 542.429 129.117 541.995 129.117ZM541.731 123.275C541.216 123.275 540.804 123.443 540.495 123.779C540.19 124.115 540.011 124.58 539.956 125.174H543.313C543.313 124.561 543.177 124.092 542.903 123.768C542.63 123.439 542.239 123.275 541.731 123.275ZM554.035 129V124.822C554.035 124.311 553.925 123.928 553.706 123.674C553.488 123.416 553.148 123.287 552.687 123.287C552.081 123.287 551.634 123.461 551.345 123.809C551.056 124.156 550.911 124.691 550.911 125.414V129H549.939V124.822C549.939 124.311 549.829 123.928 549.611 123.674C549.392 123.416 549.05 123.287 548.585 123.287C547.976 123.287 547.529 123.471 547.244 123.838C546.962 124.201 546.822 124.799 546.822 125.631V129H545.849V122.578H546.64L546.798 123.457H546.845C547.029 123.145 547.286 122.9 547.619 122.725C547.954 122.549 548.329 122.461 548.744 122.461C549.747 122.461 550.404 122.824 550.712 123.551H550.759C550.951 123.215 551.228 122.949 551.591 122.754C551.954 122.559 552.369 122.461 552.833 122.461C553.56 122.461 554.103 122.648 554.462 123.023C554.826 123.395 555.007 123.99 555.007 124.811V129H554.035Z" fill="#292929"/>
  <path fill-rule="evenodd" clip-rule="evenodd" d="M585.092 110.293L577.607 117.778C577.216 118.168 576.583 118.168 576.193 117.778L568.707 110.293L568 111L575.486 118.485C576.265 119.265 577.534 119.265 578.314 118.485L585.799 111L585.092 110.293Z" fill="#2C2A29"/>
  <path d="M605 95.5C605 95.2239 605.224 95 605.5 95C605.776 95 606 95.2239 606 95.5V134.5C606 134.776 605.776 135 605.5 135C605.224 135 605 134.776 605 134.5V95.5Z" fill="#CCCCCC"/>
  <path fill-rule="evenodd" clip-rule="evenodd" d="M633 105.702L630.799 111.329L625.001 111.779C624.712 111.802 624.443 111.945 624.256 112.176L624.175 112.29C623.881 112.76 623.962 113.396 624.382 113.769L628.82 117.696L627.438 123.601C627.369 123.896 627.416 124.207 627.569 124.465L627.641 124.573C627.977 125.016 628.585 125.136 629.056 124.831L633.999 121.631L638.945 124.831C639.191 124.99 639.489 125.04 639.77 124.967L639.891 124.929C640.398 124.732 640.695 124.164 640.563 123.601L639.18 117.696L643.618 113.769C643.84 113.573 643.976 113.292 643.998 112.99L644 112.858C643.978 112.293 643.553 111.822 643 111.779L637.201 111.329L635.001 105.702C634.891 105.422 634.678 105.199 634.41 105.084C633.857 104.848 633.226 105.125 633 105.702ZM631.546 112.404L634 106.13L636.455 112.404L642.92 112.906L637.972 117.286L639.513 123.87L634 120.302L628.488 123.87L630.029 117.286L625.081 112.906L631.546 112.404Z" fill="#2C2A29"/>
  <path d="M651.374 112V102.006H652.536V112H651.374ZM657.333 111.2C657.534 111.2 657.727 111.187 657.914 111.159C658.101 111.127 658.249 111.095 658.359 111.063V111.932C658.236 111.991 658.053 112.039 657.812 112.075C657.575 112.116 657.361 112.137 657.169 112.137C655.72 112.137 654.995 111.373 654.995 109.847V105.39H653.922V104.843L654.995 104.371L655.474 102.771H656.13V104.508H658.304V105.39H656.13V109.799C656.13 110.25 656.237 110.596 656.451 110.838C656.666 111.079 656.96 111.2 657.333 111.2ZM662.828 112.137C661.72 112.137 660.845 111.799 660.203 111.125C659.565 110.451 659.246 109.514 659.246 108.315C659.246 107.108 659.542 106.148 660.134 105.438C660.731 104.727 661.531 104.371 662.534 104.371C663.472 104.371 664.215 104.681 664.762 105.301C665.309 105.916 665.582 106.729 665.582 107.741V108.459H660.421C660.444 109.339 660.665 110.006 661.084 110.462C661.508 110.918 662.103 111.146 662.869 111.146C663.675 111.146 664.473 110.977 665.261 110.64V111.651C664.86 111.825 664.48 111.948 664.12 112.021C663.764 112.098 663.333 112.137 662.828 112.137ZM662.52 105.321C661.918 105.321 661.438 105.517 661.078 105.909C660.722 106.301 660.512 106.843 660.449 107.536H664.366C664.366 106.821 664.206 106.274 663.887 105.896C663.568 105.513 663.112 105.321 662.52 105.321ZM676.874 112V107.126C676.874 106.529 676.746 106.082 676.491 105.786C676.236 105.485 675.839 105.335 675.301 105.335C674.595 105.335 674.073 105.538 673.736 105.943C673.399 106.349 673.23 106.973 673.23 107.816V112H672.095V107.126C672.095 106.529 671.968 106.082 671.712 105.786C671.457 105.485 671.059 105.335 670.516 105.335C669.805 105.335 669.283 105.549 668.951 105.978C668.623 106.401 668.459 107.099 668.459 108.069V112H667.324V104.508H668.247L668.431 105.533H668.486C668.7 105.169 669.001 104.884 669.388 104.679C669.78 104.474 670.218 104.371 670.701 104.371C671.872 104.371 672.638 104.795 672.998 105.643H673.052C673.276 105.251 673.599 104.941 674.023 104.713C674.447 104.485 674.93 104.371 675.472 104.371C676.32 104.371 676.953 104.59 677.373 105.027C677.796 105.46 678.008 106.155 678.008 107.112V112H676.874Z" fill="#292929"/>
  <path d="M651.178 129V120.434H652.174V129H651.178ZM656.286 128.314C656.457 128.314 656.623 128.303 656.784 128.279C656.944 128.252 657.071 128.225 657.165 128.197V128.941C657.059 128.992 656.903 129.033 656.696 129.064C656.493 129.1 656.309 129.117 656.145 129.117C654.903 129.117 654.282 128.463 654.282 127.154V123.334H653.362V122.865L654.282 122.461L654.692 121.09H655.254V122.578H657.118V123.334H655.254V127.113C655.254 127.5 655.346 127.797 655.53 128.004C655.713 128.211 655.965 128.314 656.286 128.314ZM660.995 129.117C660.046 129.117 659.296 128.828 658.745 128.25C658.198 127.672 657.925 126.869 657.925 125.842C657.925 124.807 658.179 123.984 658.686 123.375C659.198 122.766 659.884 122.461 660.743 122.461C661.548 122.461 662.184 122.727 662.653 123.258C663.122 123.785 663.356 124.482 663.356 125.35V125.965H658.933C658.952 126.719 659.142 127.291 659.501 127.682C659.864 128.072 660.374 128.268 661.03 128.268C661.722 128.268 662.405 128.123 663.081 127.834V128.701C662.737 128.85 662.411 128.955 662.102 129.018C661.798 129.084 661.429 129.117 660.995 129.117ZM660.731 123.275C660.216 123.275 659.804 123.443 659.495 123.779C659.19 124.115 659.011 124.58 658.956 125.174H662.313C662.313 124.561 662.177 124.092 661.903 123.768C661.63 123.439 661.239 123.275 660.731 123.275ZM673.035 129V124.822C673.035 124.311 672.925 123.928 672.706 123.674C672.488 123.416 672.148 123.287 671.687 123.287C671.081 123.287 670.634 123.461 670.345 123.809C670.056 124.156 669.911 124.691 669.911 125.414V129H668.939V124.822C668.939 124.311 668.829 123.928 668.611 123.674C668.392 123.416 668.05 123.287 667.585 123.287C666.976 123.287 666.529 123.471 666.244 123.838C665.962 124.201 665.822 124.799 665.822 125.631V129H664.849V122.578H665.64L665.798 123.457H665.845C666.029 123.145 666.286 122.9 666.619 122.725C666.954 122.549 667.329 122.461 667.744 122.461C668.747 122.461 669.404 122.824 669.712 123.551H669.759C669.951 123.215 670.228 122.949 670.591 122.754C670.954 122.559 671.369 122.461 671.833 122.461C672.56 122.461 673.103 122.648 673.462 123.023C673.826 123.395 674.007 123.99 674.007 124.811V129H673.035Z" fill="#292929"/>
  <path fill-rule="evenodd" clip-rule="evenodd" d="M704.092 110.293L696.607 117.778C696.216 118.168 695.583 118.168 695.193 117.778L687.707 110.293L687 111L694.486 118.485C695.265 119.265 696.534 119.265 697.314 118.485L704.799 111L704.092 110.293Z" fill="#2C2A29"/>
  <path d="M724 95.5C724 95.2239 724.224 95 724.5 95C724.776 95 725 95.2239 725 95.5V134.5C725 134.776 724.776 135 724.5 135C724.224 135 724 134.776 724 134.5V95.5Z" fill="#CCCCCC"/>
  <path fill-rule="evenodd" clip-rule="evenodd" d="M752 105.702L749.799 111.329L744.001 111.779C743.712 111.802 743.443 111.945 743.256 112.176L743.175 112.29C742.881 112.76 742.962 113.396 743.382 113.769L747.82 117.696L746.438 123.601C746.369 123.896 746.416 124.207 746.569 124.465L746.641 124.573C746.977 125.016 747.585 125.136 748.056 124.831L752.999 121.631L757.945 124.831C758.191 124.99 758.489 125.04 758.77 124.967L758.891 124.929C759.398 124.732 759.695 124.164 759.563 123.601L758.18 117.696L762.618 113.769C762.84 113.573 762.976 113.292 762.998 112.99L763 112.858C762.978 112.293 762.553 111.822 762 111.779L756.201 111.329L754.001 105.702C753.891 105.422 753.678 105.199 753.41 105.084C752.857 104.848 752.226 105.125 752 105.702ZM750.546 112.404L753 106.13L755.455 112.404L761.92 112.906L756.972 117.286L758.513 123.87L753 120.302L747.488 123.87L749.029 117.286L744.081 112.906L750.546 112.404Z" fill="#2C2A29"/>
  <path d="M770.374 112V102.006H771.536V112H770.374ZM776.333 111.2C776.534 111.2 776.727 111.187 776.914 111.159C777.101 111.127 777.249 111.095 777.359 111.063V111.932C777.236 111.991 777.053 112.039 776.812 112.075C776.575 112.116 776.361 112.137 776.169 112.137C774.72 112.137 773.995 111.373 773.995 109.847V105.39H772.922V104.843L773.995 104.371L774.474 102.771H775.13V104.508H777.304V105.39H775.13V109.799C775.13 110.25 775.237 110.596 775.451 110.838C775.666 111.079 775.96 111.2 776.333 111.2ZM781.828 112.137C780.72 112.137 779.845 111.799 779.203 111.125C778.565 110.451 778.246 109.514 778.246 108.315C778.246 107.108 778.542 106.148 779.134 105.438C779.731 104.727 780.531 104.371 781.534 104.371C782.472 104.371 783.215 104.681 783.762 105.301C784.309 105.916 784.582 106.729 784.582 107.741V108.459H779.421C779.444 109.339 779.665 110.006 780.084 110.462C780.508 110.918 781.103 111.146 781.869 111.146C782.675 111.146 783.473 110.977 784.261 110.64V111.651C783.86 111.825 783.48 111.948 783.12 112.021C782.764 112.098 782.333 112.137 781.828 112.137ZM781.52 105.321C780.918 105.321 780.438 105.517 780.078 105.909C779.722 106.301 779.512 106.843 779.449 107.536H783.366C783.366 106.821 783.206 106.274 782.887 105.896C782.568 105.513 782.112 105.321 781.52 105.321ZM795.874 112V107.126C795.874 106.529 795.746 106.082 795.491 105.786C795.236 105.485 794.839 105.335 794.301 105.335C793.595 105.335 793.073 105.538 792.736 105.943C792.399 106.349 792.23 106.973 792.23 107.816V112H791.095V107.126C791.095 106.529 790.968 106.082 790.712 105.786C790.457 105.485 790.059 105.335 789.516 105.335C788.805 105.335 788.283 105.549 787.951 105.978C787.623 106.401 787.459 107.099 787.459 108.069V112H786.324V104.508H787.247L787.431 105.533H787.486C787.7 105.169 788.001 104.884 788.388 104.679C788.78 104.474 789.218 104.371 789.701 104.371C790.872 104.371 791.638 104.795 791.998 105.643H792.052C792.276 105.251 792.599 104.941 793.023 104.713C793.447 104.485 793.93 104.371 794.472 104.371C795.32 104.371 795.953 104.59 796.373 105.027C796.796 105.46 797.008 106.155 797.008 107.112V112H795.874Z" fill="#292929"/>
  <path d="M770.178 129V120.434H771.174V129H770.178ZM775.286 128.314C775.457 128.314 775.623 128.303 775.784 128.279C775.944 128.252 776.071 128.225 776.165 128.197V128.941C776.059 128.992 775.903 129.033 775.696 129.064C775.493 129.1 775.309 129.117 775.145 129.117C773.903 129.117 773.282 128.463 773.282 127.154V123.334H772.362V122.865L773.282 122.461L773.692 121.09H774.254V122.578H776.118V123.334H774.254V127.113C774.254 127.5 774.346 127.797 774.53 128.004C774.713 128.211 774.965 128.314 775.286 128.314ZM779.995 129.117C779.046 129.117 778.296 128.828 777.745 128.25C777.198 127.672 776.925 126.869 776.925 125.842C776.925 124.807 777.179 123.984 777.686 123.375C778.198 122.766 778.884 122.461 779.743 122.461C780.548 122.461 781.184 122.727 781.653 123.258C782.122 123.785 782.356 124.482 782.356 125.35V125.965H777.933C777.952 126.719 778.142 127.291 778.501 127.682C778.864 128.072 779.374 128.268 780.03 128.268C780.722 128.268 781.405 128.123 782.081 127.834V128.701C781.737 128.85 781.411 128.955 781.102 129.018C780.798 129.084 780.429 129.117 779.995 129.117ZM779.731 123.275C779.216 123.275 778.804 123.443 778.495 123.779C778.19 124.115 778.011 124.58 777.956 125.174H781.313C781.313 124.561 781.177 124.092 780.903 123.768C780.63 123.439 780.239 123.275 779.731 123.275ZM792.035 129V124.822C792.035 124.311 791.925 123.928 791.706 123.674C791.488 123.416 791.148 123.287 790.687 123.287C790.081 123.287 789.634 123.461 789.345 123.809C789.056 124.156 788.911 124.691 788.911 125.414V129H787.939V124.822C787.939 124.311 787.829 123.928 787.611 123.674C787.392 123.416 787.05 123.287 786.585 123.287C785.976 123.287 785.529 123.471 785.244 123.838C784.962 124.201 784.822 124.799 784.822 125.631V129H783.849V122.578H784.64L784.798 123.457H784.845C785.029 123.145 785.286 122.9 785.619 122.725C785.954 122.549 786.329 122.461 786.744 122.461C787.747 122.461 788.404 122.824 788.712 123.551H788.759C788.951 123.215 789.228 122.949 789.591 122.754C789.954 122.559 790.369 122.461 790.833 122.461C791.56 122.461 792.103 122.648 792.462 123.023C792.826 123.395 793.007 123.99 793.007 124.811V129H792.035Z" fill="#292929"/>
  <path fill-rule="evenodd" clip-rule="evenodd" d="M823.092 110.293L815.607 117.778C815.216 118.168 814.583 118.168 814.193 117.778L806.707 110.293L806 111L813.486 118.485C814.265 119.265 815.534 119.265 816.314 118.485L823.799 111L823.092 110.293Z" fill="#2C2A29"/>
  <line x1="176" y1="77" x2="176" y2="14" stroke="#2C2A29" stroke-width="2"/>
  <path d="M88 98L88 77L275 77L275 98" stroke="#2C2A29"/>
  <circle cx="177" cy="20" r="20" fill="#2C2A29"/>
  <path d="M180.711 26H173.203V24.8828L176.211 21.8594C177.128 20.9323 177.732 20.2708 178.023 19.875C178.315 19.4792 178.534 19.0938 178.68 18.7188C178.826 18.3438 178.898 17.9401 178.898 17.5078C178.898 16.8984 178.714 16.4167 178.344 16.0625C177.974 15.7031 177.461 15.5234 176.805 15.5234C176.331 15.5234 175.88 15.6016 175.453 15.7578C175.031 15.9141 174.56 16.1979 174.039 16.6094L173.352 15.7266C174.404 14.8516 175.549 14.4141 176.789 14.4141C177.862 14.4141 178.703 14.6901 179.312 15.2422C179.922 15.7891 180.227 16.526 180.227 17.4531C180.227 18.1771 180.023 18.8932 179.617 19.6016C179.211 20.3099 178.451 21.2057 177.336 22.2891L174.836 24.7344V24.7969H180.711V26Z" fill="white"/>
  <circle cx="176" cy="77" r="4" transform="rotate(-90 176 77)" fill="#2C2A29"/>
  <line x1="708" y1="77" x2="708" y2="35" stroke="#2C2A29" stroke-width="2"/>
  <path d="M495 98L495 77L839 77L839 98" stroke="#2C2A29"/>
  <circle cx="709" cy="20" r="20" fill="#2C2A29"/>
  <path d="M712.281 17.2656C712.281 17.9948 712.076 18.5911 711.664 19.0547C711.258 19.5182 710.68 19.8281 709.93 19.9844V20.0469C710.846 20.1615 711.526 20.4531 711.969 20.9219C712.411 21.3906 712.633 22.0052 712.633 22.7656C712.633 23.8542 712.255 24.6927 711.5 25.2812C710.745 25.8646 709.672 26.1562 708.281 26.1562C707.677 26.1562 707.122 26.1094 706.617 26.0156C706.117 25.9271 705.63 25.7682 705.156 25.5391V24.3047C705.651 24.5495 706.177 24.737 706.734 24.8672C707.297 24.9922 707.828 25.0547 708.328 25.0547C710.302 25.0547 711.289 24.2812 711.289 22.7344C711.289 21.349 710.201 20.6562 708.023 20.6562H706.898V19.5391H708.039C708.93 19.5391 709.635 19.3438 710.156 18.9531C710.677 18.5573 710.938 18.0104 710.938 17.3125C710.938 16.7552 710.745 16.3177 710.359 16C709.979 15.6823 709.461 15.5234 708.805 15.5234C708.305 15.5234 707.833 15.5911 707.391 15.7266C706.948 15.862 706.443 16.112 705.875 16.4766L705.219 15.6016C705.688 15.2318 706.227 14.9427 706.836 14.7344C707.451 14.5208 708.096 14.4141 708.773 14.4141C709.883 14.4141 710.745 14.6693 711.359 15.1797C711.974 15.6849 712.281 16.3802 712.281 17.2656Z" fill="white"/>
  <circle cx="708" cy="77" r="4" transform="rotate(-90 708 77)" fill="#2C2A29"/>
  <line x1="39" y1="76.9998" x2="39" y2="34.9998" stroke="#2C2A29" stroke-width="2"/>
  <path d="M22 98L22 77L58 77L58 98" stroke="#2C2A29"/>
  <circle cx="40" cy="20" r="20" fill="#2C2A29"/>
  <path d="M41.0078 26H39.7422V17.8594C39.7422 17.1823 39.763 16.5417 39.8047 15.9375C39.6953 16.0469 39.5729 16.1615 39.4375 16.2812C39.3021 16.401 38.6823 16.9089 37.5781 17.8047L36.8906 16.9141L39.9141 14.5781H41.0078V26Z" fill="white"/>
  <circle cx="39" cy="76.9998" r="4" transform="rotate(-90 39 76.9998)" fill="#2C2A29"/>
  <line x1="511" y1="140" x2="511" y2="182" stroke="#2C2A29" stroke-width="2"/>
  <path d="M525 119L525 140L505 140L505 119" stroke="#2C2A29"/>
  <circle cx="510" cy="171" r="20" fill="#2C2A29"/>
  <path d="M506.87 168.266C506.87 168.995 506.665 169.591 506.253 170.055C505.847 170.518 505.269 170.828 504.519 170.984V171.047C505.435 171.161 506.115 171.453 506.558 171.922C507.001 172.391 507.222 173.005 507.222 173.766C507.222 174.854 506.844 175.693 506.089 176.281C505.334 176.865 504.261 177.156 502.87 177.156C502.266 177.156 501.711 177.109 501.206 177.016C500.706 176.927 500.219 176.768 499.745 176.539V175.305C500.24 175.549 500.766 175.737 501.323 175.867C501.886 175.992 502.417 176.055 502.917 176.055C504.891 176.055 505.878 175.281 505.878 173.734C505.878 172.349 504.79 171.656 502.613 171.656H501.488V170.539H502.628C503.519 170.539 504.224 170.344 504.745 169.953C505.266 169.557 505.527 169.01 505.527 168.312C505.527 167.755 505.334 167.318 504.948 167C504.568 166.682 504.05 166.523 503.394 166.523C502.894 166.523 502.422 166.591 501.98 166.727C501.537 166.862 501.032 167.112 500.464 167.477L499.808 166.602C500.277 166.232 500.816 165.943 501.425 165.734C502.04 165.521 502.685 165.414 503.363 165.414C504.472 165.414 505.334 165.669 505.948 166.18C506.563 166.685 506.87 167.38 506.87 168.266ZM509.055 176.172C509.055 175.823 509.133 175.56 509.289 175.383C509.451 175.201 509.68 175.109 509.977 175.109C510.279 175.109 510.513 175.201 510.68 175.383C510.852 175.56 510.938 175.823 510.938 176.172C510.938 176.51 510.852 176.771 510.68 176.953C510.508 177.135 510.273 177.227 509.977 177.227C509.711 177.227 509.49 177.146 509.312 176.984C509.141 176.818 509.055 176.547 509.055 176.172ZM517.419 177H516.153V168.859C516.153 168.182 516.174 167.542 516.216 166.938C516.106 167.047 515.984 167.161 515.848 167.281C515.713 167.401 515.093 167.909 513.989 168.805L513.302 167.914L516.325 165.578H517.419V177Z" fill="white"/>
  <circle cx="511" cy="140" r="4" transform="rotate(90 511 140)" fill="#2C2A29"/>
  <line x1="545" y1="140" x2="545" y2="195" stroke="#2C2A29" stroke-width="2"/>
  <path d="M560 123L560 140L530 140L530 123" stroke="#2C2A29"/>
  <circle cx="544" cy="213" r="20" fill="#2C2A29"/>
  <path d="M540.87 210.266C540.87 210.995 540.665 211.591 540.253 212.055C539.847 212.518 539.269 212.828 538.519 212.984V213.047C539.435 213.161 540.115 213.453 540.558 213.922C541.001 214.391 541.222 215.005 541.222 215.766C541.222 216.854 540.844 217.693 540.089 218.281C539.334 218.865 538.261 219.156 536.87 219.156C536.266 219.156 535.711 219.109 535.206 219.016C534.706 218.927 534.219 218.768 533.745 218.539V217.305C534.24 217.549 534.766 217.737 535.323 217.867C535.886 217.992 536.417 218.055 536.917 218.055C538.891 218.055 539.878 217.281 539.878 215.734C539.878 214.349 538.79 213.656 536.613 213.656H535.488V212.539H536.628C537.519 212.539 538.224 212.344 538.745 211.953C539.266 211.557 539.527 211.01 539.527 210.312C539.527 209.755 539.334 209.318 538.948 209C538.568 208.682 538.05 208.523 537.394 208.523C536.894 208.523 536.422 208.591 535.98 208.727C535.537 208.862 535.032 209.112 534.464 209.477L533.808 208.602C534.277 208.232 534.816 207.943 535.425 207.734C536.04 207.521 536.685 207.414 537.363 207.414C538.472 207.414 539.334 207.669 539.948 208.18C540.563 208.685 540.87 209.38 540.87 210.266ZM543.055 218.172C543.055 217.823 543.133 217.56 543.289 217.383C543.451 217.201 543.68 217.109 543.977 217.109C544.279 217.109 544.513 217.201 544.68 217.383C544.852 217.56 544.938 217.823 544.938 218.172C544.938 218.51 544.852 218.771 544.68 218.953C544.508 219.135 544.273 219.227 543.977 219.227C543.711 219.227 543.49 219.146 543.312 218.984C543.141 218.818 543.055 218.547 543.055 218.172ZM553.692 210.266C553.692 210.995 553.486 211.591 553.075 212.055C552.669 212.518 552.091 212.828 551.341 212.984V213.047C552.257 213.161 552.937 213.453 553.38 213.922C553.822 214.391 554.044 215.005 554.044 215.766C554.044 216.854 553.666 217.693 552.911 218.281C552.156 218.865 551.083 219.156 549.692 219.156C549.088 219.156 548.533 219.109 548.028 219.016C547.528 218.927 547.041 218.768 546.567 218.539V217.305C547.062 217.549 547.588 217.737 548.145 217.867C548.708 217.992 549.239 218.055 549.739 218.055C551.713 218.055 552.7 217.281 552.7 215.734C552.7 214.349 551.611 213.656 549.434 213.656H548.309V212.539H549.45C550.341 212.539 551.046 212.344 551.567 211.953C552.088 211.557 552.348 211.01 552.348 210.312C552.348 209.755 552.156 209.318 551.77 209C551.39 208.682 550.872 208.523 550.216 208.523C549.716 208.523 549.244 208.591 548.802 208.727C548.359 208.862 547.854 209.112 547.286 209.477L546.63 208.602C547.098 208.232 547.637 207.943 548.247 207.734C548.861 207.521 549.507 207.414 550.184 207.414C551.294 207.414 552.156 207.669 552.77 208.18C553.385 208.685 553.692 209.38 553.692 210.266Z" fill="white"/>
  <circle cx="545.001" cy="140" r="4" transform="rotate(90 545.001 140)" fill="#2C2A29"/>
  <line x1="539" y1="93.9998" x2="539" y2="51.9998" stroke="#2C2A29" stroke-width="2"/>
  <path d="M530 109L530 94L562 94L562 109" stroke="#2C2A29"/>
  <circle cx="540" cy="37" r="20" fill="#2C2A29"/>
  <path d="M536.87 34.2656C536.87 34.9948 536.665 35.5911 536.253 36.0547C535.847 36.5182 535.269 36.8281 534.519 36.9844L534.519 37.0469C535.435 37.1615 536.115 37.4531 536.558 37.9219C537.001 38.3906 537.222 39.0052 537.222 39.7656C537.222 40.8542 536.844 41.6927 536.089 42.2813C535.334 42.8646 534.261 43.1563 532.87 43.1563C532.266 43.1563 531.711 43.1094 531.206 43.0156C530.706 42.9271 530.219 42.7682 529.745 42.5391L529.745 41.3047C530.24 41.5495 530.766 41.737 531.323 41.8672C531.886 41.9922 532.417 42.0547 532.917 42.0547C534.891 42.0547 535.878 41.2813 535.878 39.7344C535.878 38.349 534.79 37.6563 532.612 37.6563L531.487 37.6563L531.487 36.5391L532.628 36.5391C533.519 36.5391 534.224 36.3438 534.745 35.9531C535.266 35.5573 535.527 35.0104 535.527 34.3125C535.527 33.7552 535.334 33.3177 534.948 33C534.568 32.6823 534.05 32.5234 533.394 32.5234C532.894 32.5234 532.422 32.5911 531.98 32.7266C531.537 32.862 531.032 33.112 530.464 33.4766L529.808 32.6016C530.277 32.2318 530.816 31.9427 531.425 31.7344C532.04 31.5208 532.685 31.4141 533.362 31.4141C534.472 31.4141 535.334 31.6693 535.948 32.1797C536.563 32.6849 536.87 33.3802 536.87 34.2656ZM539.055 42.1719C539.055 41.8229 539.133 41.5599 539.289 41.3828C539.451 41.2005 539.68 41.1094 539.977 41.1094C540.279 41.1094 540.513 41.2005 540.68 41.3828C540.852 41.5599 540.937 41.8229 540.937 42.1719C540.937 42.5104 540.852 42.7708 540.68 42.9531C540.508 43.1354 540.273 43.2266 539.977 43.2266C539.711 43.2266 539.49 43.1458 539.312 42.9844C539.141 42.8177 539.055 42.5469 539.055 42.1719ZM550.122 43L542.614 43L542.614 41.8828L545.622 38.8594C546.539 37.9323 547.143 37.2708 547.434 36.875C547.726 36.4792 547.945 36.0938 548.091 35.7188C548.236 35.3438 548.309 34.9401 548.309 34.5078C548.309 33.8984 548.124 33.4167 547.755 33.0625C547.385 32.7031 546.872 32.5234 546.216 32.5234C545.742 32.5234 545.291 32.6016 544.864 32.7578C544.442 32.9141 543.971 33.1979 543.45 33.6094L542.762 32.7266C543.815 31.8516 544.96 31.4141 546.2 31.4141C547.273 31.4141 548.114 31.6901 548.723 32.2422C549.333 32.7891 549.637 33.526 549.637 34.4531C549.637 35.1771 549.434 35.8932 549.028 36.6016C548.622 37.3099 547.861 38.2057 546.747 39.2891L544.247 41.7344L544.247 41.7969L550.122 41.7969L550.122 43Z" fill="white"/>
  <circle cx="539" cy="93.9998" r="4" transform="rotate(-90 539 93.9998)" fill="#2C2A29"/>
  <line x1="580.001" y1="140" x2="580.001" y2="182" stroke="#2C2A29" stroke-width="2"/>
  <path d="M586 115L586 140L568 140L568 115" stroke="#2C2A29"/>
  <circle cx="579" cy="171" r="20" fill="#2C2A29"/>
  <path d="M575.87 168.266C575.87 168.995 575.665 169.591 575.253 170.055C574.847 170.518 574.269 170.828 573.519 170.984V171.047C574.435 171.161 575.115 171.453 575.558 171.922C576.001 172.391 576.222 173.005 576.222 173.766C576.222 174.854 575.844 175.693 575.089 176.281C574.334 176.865 573.261 177.156 571.87 177.156C571.266 177.156 570.711 177.109 570.206 177.016C569.706 176.927 569.219 176.768 568.745 176.539V175.305C569.24 175.549 569.766 175.737 570.323 175.867C570.886 175.992 571.417 176.055 571.917 176.055C573.891 176.055 574.878 175.281 574.878 173.734C574.878 172.349 573.79 171.656 571.613 171.656H570.488V170.539H571.628C572.519 170.539 573.224 170.344 573.745 169.953C574.266 169.557 574.527 169.01 574.527 168.312C574.527 167.755 574.334 167.318 573.948 167C573.568 166.682 573.05 166.523 572.394 166.523C571.894 166.523 571.422 166.591 570.98 166.727C570.537 166.862 570.032 167.112 569.464 167.477L568.808 166.602C569.277 166.232 569.816 165.943 570.425 165.734C571.04 165.521 571.685 165.414 572.363 165.414C573.472 165.414 574.334 165.669 574.948 166.18C575.563 166.685 575.87 167.38 575.87 168.266ZM578.055 176.172C578.055 175.823 578.133 175.56 578.289 175.383C578.451 175.201 578.68 175.109 578.977 175.109C579.279 175.109 579.513 175.201 579.68 175.383C579.852 175.56 579.938 175.823 579.938 176.172C579.938 176.51 579.852 176.771 579.68 176.953C579.508 177.135 579.273 177.227 578.977 177.227C578.711 177.227 578.49 177.146 578.312 176.984C578.141 176.818 578.055 176.547 578.055 176.172ZM589.661 174.375H587.966V177H586.723V174.375H581.169V173.242L586.591 165.516H587.966V173.195H589.661V174.375ZM586.723 173.195V169.398C586.723 168.654 586.749 167.812 586.802 166.875H586.739C586.489 167.375 586.255 167.789 586.036 168.117L582.466 173.195H586.723Z" fill="white"/>
  <circle cx="580.001" cy="140" r="4" transform="rotate(90 580.001 140)" fill="#2C2A29"/>
  <defs>
    <filter id="filter0_d" x="0" y="78" width="851" height="76" filterUnits="userSpaceOnUse" color-interpolation-filters="sRGB">
      <feFlood flood-opacity="0" result="BackgroundImageFix"/>
      <feColorMatrix in="SourceAlpha" type="matrix" values="0 0 0 0 0 0 0 0 0 0 0 0 0 0 0 0 0 0 127 0"/>
      <feOffset dy="1"/>
      <feGaussianBlur stdDeviation="4"/>
      <feColorMatrix type="matrix" values="0 0 0 0 0 0 0 0 0 0 0 0 0 0 0 0 0 0 0.1 0"/>
      <feBlend mode="normal" in2="BackgroundImageFix" result="effect1_dropShadow"/>
      <feBlend mode="normal" in="SourceGraphic" in2="effect1_dropShadow" result="shape"/>
    </filter>
  </defs>
</svg>
