<svg width="247" height="95" xmlns="http://www.w3.org/2000/svg" fill="none">
  <g>
    <title>Layer 1</title>
    <path id="svg_1" stroke-linecap="round" stroke-width="24.8991" stroke="#FDDA24" d="m234.331,-5.06376c-9.609,15.7253 -20.997,29.7516 -34.09,40.7936c-6.532,5.534 -13.448,10.3674 -20.663,14.417c-7.236,3.9904 -14.745,7.2566 -22.45,9.6846c-15.414,4.862 -31.537,6.491 -47.557,5.284c-3.988,-0.317 -7.918,-0.815 -11.8468,-1.65c-3.9209,-0.831 -7.8148,-1.908 -11.6675,-3.217c-3.8536,-1.306 -7.6521,-2.904 -11.4042,-4.6696c-1.8805,-0.8692 -3.7315,-1.8476 -5.5867,-2.8095c-1.8378,-1.0216 -3.6796,-2.0295 -5.4904,-3.1356"/>
    <path id="svg_2" stroke-linecap="round" stroke-width="14.7858" stroke="#00C389" d="m187.052,56.03064c-4.507,2.6878 -9.144,5.0468 -13.851,7.1758c-4.718,2.096 -9.533,3.861 -14.4,5.382c-4.865,1.532 -9.809,2.677 -14.776,3.604c-4.97,0.906 -9.974,1.567 -14.996,1.892c-5.02,0.339 -10.054,0.409 -15.083,0.215l-1.885,-0.074l-1.885,-0.121c-1.255,-0.082 -2.51,-0.161 -3.784,-0.308c-1.269,-0.13 -2.539,-0.242 -3.803,-0.445c-1.264,-0.187 -2.532,-0.342 -3.7893,-0.596c-10.0892,-1.785 -19.9676,-5.186 -29.3951,-9.802c-9.4376,-4.611 -18.429,-10.4199 -26.9678,-16.9867c-8.5442,-6.5683 -16.6505,-13.8834 -24.4108,-21.6449c-15.50987,-15.5606 -29.645,-32.8488 -43.1708,-50.6403"/>
    <path id="svg_3" stroke-linecap="round" stroke-width="15.3225" stroke="#F5B6CD" d="m20.1862,14.88074c-17.13987,-17.6198 -32.7731,-37.499 -47.9018,-57.94582c-15.1388,-20.46358 -29.7221,-41.63218 -44.9785,-62.27368"/>
  </g>
</svg>
