<svg width="884" height="206" viewBox="0 0 884 206" fill="none" xmlns="http://www.w3.org/2000/svg">
  <rect width="884" height="206" fill="white"/>
  <g filter="url(#filter0_d)">
    <rect width="786" height="60" transform="matrix(-1 0 0 1 835 73)" fill="white"/>
  </g>
  <path fill-rule="evenodd" clip-rule="evenodd" d="M70.1006 88.707V87.7072H92.3136V88.707H70.1006ZM70.1006 95.707V94.7072H92.3136V95.707H70.1006ZM70.1006 101.707V102.707H92.3136V101.707H70.1006Z" fill="#2C2A29"/>
  <path d="M69.9688 124L67.0625 116.406H67.0156C67.0703 117.008 67.0977 117.723 67.0977 118.551V124H66.1777V115.434H67.6777L70.3906 122.5H70.4375L73.1738 115.434H74.6621V124H73.666V118.48C73.666 117.848 73.6934 117.16 73.748 116.418H73.7012L70.7715 124H69.9688ZM79.4126 124.117C78.4633 124.117 77.7133 123.828 77.1626 123.25C76.6157 122.672 76.3422 121.869 76.3422 120.842C76.3422 119.807 76.5961 118.984 77.104 118.375C77.6157 117.766 78.3012 117.461 79.1606 117.461C79.9653 117.461 80.602 117.727 81.0708 118.258C81.5395 118.785 81.7739 119.482 81.7739 120.35V120.965H77.3501C77.3696 121.719 77.559 122.291 77.9184 122.682C78.2817 123.072 78.7915 123.268 79.4477 123.268C80.1391 123.268 80.8227 123.123 81.4985 122.834V123.701C81.1547 123.85 80.8286 123.955 80.52 124.018C80.2153 124.084 79.8461 124.117 79.4126 124.117ZM79.1489 118.275C78.6333 118.275 78.2211 118.443 77.9126 118.779C77.6079 119.115 77.4282 119.58 77.3735 120.174H80.7309C80.7309 119.561 80.5942 119.092 80.3208 118.768C80.0473 118.439 79.6567 118.275 79.1489 118.275ZM87.661 124V119.846C87.661 119.322 87.5419 118.932 87.3036 118.674C87.0653 118.416 86.6923 118.287 86.1845 118.287C85.5126 118.287 85.0204 118.469 84.7079 118.832C84.3954 119.195 84.2392 119.795 84.2392 120.631V124H83.2665V117.578H84.0575L84.2157 118.457H84.2626C84.4618 118.141 84.7411 117.896 85.1005 117.725C85.4599 117.549 85.8603 117.461 86.3017 117.461C87.0751 117.461 87.6571 117.648 88.0478 118.023C88.4384 118.395 88.6337 118.99 88.6337 119.811V124H87.661ZM91.3802 117.578V121.744C91.3802 122.268 91.4994 122.658 91.7377 122.916C91.9759 123.174 92.349 123.303 92.8568 123.303C93.5287 123.303 94.0189 123.119 94.3275 122.752C94.64 122.385 94.7963 121.785 94.7963 120.953V117.578H95.7689V124H94.9662L94.8256 123.139H94.7728C94.5736 123.455 94.2963 123.697 93.9408 123.865C93.5892 124.033 93.1869 124.117 92.7338 124.117C91.9525 124.117 91.3666 123.932 90.9759 123.561C90.5892 123.189 90.3959 122.596 90.3959 121.779V117.578H91.3802ZM92.3998 116.582C92.5873 116.34 92.7884 116.047 93.0033 115.703C93.222 115.359 93.3939 115.061 93.5189 114.807H94.7025V114.93C94.5306 115.184 94.2748 115.496 93.9349 115.867C93.5951 116.238 93.3002 116.525 93.0502 116.729H92.3998V116.582Z" fill="#2C2A29"/>
  <path fill-rule="evenodd" clip-rule="evenodd" d="M138.996 101.398C139.123 101.878 139.615 102.125 140.116 101.962C144.218 100.729 148.331 99.8844 152.574 99.2701C153.061 99.2065 153.327 98.715 153.148 98.222C152.771 97.1832 152.581 96.6651 152.196 95.6322C152.032 95.1937 151.59 94.9061 151.138 94.9541C146.99 95.4538 142.984 96.1918 138.968 97.3285C138.445 97.489 138.124 98.0612 138.256 98.5688C138.55 99.699 138.698 100.265 138.996 101.398Z" fill="#2C2A29"/>
  <path fill-rule="evenodd" clip-rule="evenodd" d="M155.624 101.966C155.465 101.502 155.033 101.192 154.605 101.246C148.113 102.055 141.791 103.624 135.796 106.216C135.359 106.418 135.096 106.956 135.188 107.429C135.423 108.641 135.542 109.247 135.782 110.461C135.884 110.98 136.38 111.219 136.869 110.986C142.959 108.261 149.394 106.525 155.995 105.491C156.415 105.423 156.629 104.953 156.468 104.469C156.135 103.466 155.967 102.965 155.624 101.966Z" fill="#2C2A29"/>
  <path fill-rule="evenodd" clip-rule="evenodd" d="M155.606 108.732C155.445 108.237 154.975 107.913 154.528 108.003C150.474 108.863 146.512 109.899 142.587 111.217C142.089 111.395 141.808 111.909 141.939 112.381C142.251 113.506 142.408 114.069 142.724 115.197C142.873 115.727 143.481 115.999 144.042 115.79C147.966 114.417 151.929 113.217 155.979 112.256C156.368 112.164 156.559 111.719 156.414 111.259C156.096 110.246 155.934 109.741 155.606 108.732Z" fill="#2C2A29"/>
  <path fill-rule="evenodd" clip-rule="evenodd" d="M171.083 107.623C171.083 106.26 170.196 105.694 168.448 105.694H166.361V109.551H168.422C170.118 109.551 171.083 108.883 171.083 107.623ZM168.031 98.9316C167.483 98.9316 166.909 98.983 166.361 99.0602V102.48H168.135C169.7 102.48 170.431 101.837 170.431 100.732C170.431 99.6773 169.674 98.9316 168.031 98.9316ZM175.362 107.803C175.362 110.811 172.283 112.817 168.787 112.817H162.369V96.2061C164.509 95.8975 166.126 95.6918 168.031 95.6918C171.553 95.6918 174.37 97.3116 174.37 100.14C174.37 101.76 173.509 102.84 171.97 103.431C174.344 104.1 175.362 105.514 175.362 107.803Z" fill="#2C2A29"/>
  <path fill-rule="evenodd" clip-rule="evenodd" d="M184.554 109.526V107.314H183.798C182.024 107.314 180.406 107.7 180.406 108.908C180.406 109.834 181.032 110.168 182.311 110.168C183.328 110.168 184.163 109.86 184.554 109.526ZM188.389 104.717V111.48C186.981 112.534 184.711 113.1 181.632 113.1C178.893 113.1 176.623 111.994 176.623 109.551C176.623 105.874 180.249 104.974 184.554 104.846C184.476 103.251 183.824 102.84 182.389 102.84C181.632 102.84 179.623 103.174 179.363 103.174C178.736 103.174 178.241 102.789 177.823 101.657L177.51 100.732C179.128 100.14 180.719 99.7288 182.441 99.7288C186.198 99.7288 188.389 101.117 188.389 104.717Z" fill="#2C2A29"/>
  <path fill-rule="evenodd" clip-rule="evenodd" d="M202.756 103.663V112.817H198.843V105.026C198.843 103.663 197.93 102.969 196.339 102.969C195.739 102.969 195.165 103.046 194.669 103.174V112.817H190.729L190.755 101.374C192.399 100.294 195.06 99.703 197.226 99.703C200.226 99.703 202.756 101.169 202.756 103.663Z" fill="#2C2A29"/>
  <path fill-rule="evenodd" clip-rule="evenodd" d="M204.453 106.543C204.453 102.043 207.636 99.6774 211.758 99.6774C212.906 99.6774 213.95 99.8317 215.202 100.115C215.045 101.4 214.497 102.531 213.898 103.174C213.454 103.046 212.723 102.943 212.306 102.943C209.671 102.943 208.601 104.28 208.601 106.311C208.601 108.368 209.593 109.628 212.071 109.628C212.75 109.628 213.532 109.5 214.497 109.165L215.202 112.251C213.767 112.817 212.28 113.074 211.106 113.074C207.088 113.074 204.453 110.708 204.453 106.543Z" fill="#2C2A29"/>
  <path fill-rule="evenodd" clip-rule="evenodd" d="M225.638 106.363C225.638 104.254 224.594 103.02 222.768 103.02C220.994 103.02 219.898 104.254 219.898 106.363C219.898 108.574 220.968 109.731 222.768 109.731C224.594 109.731 225.638 108.574 225.638 106.363ZM215.959 106.363C215.959 102.249 218.777 99.6774 222.768 99.6774C226.916 99.6774 229.577 102.351 229.577 106.363C229.577 110.503 226.89 113.074 222.768 113.074C218.62 113.074 215.959 110.426 215.959 106.363Z" fill="#2C2A29"/>
  <path fill-rule="evenodd" clip-rule="evenodd" d="M231.795 96.3089C232.708 95.6403 234.691 95.0746 235.734 95.0746V112.817H231.795V96.3089Z" fill="#2C2A29"/>
  <path fill-rule="evenodd" clip-rule="evenodd" d="M247.631 106.363C247.631 104.254 246.588 103.02 244.762 103.02C242.987 103.02 241.892 104.254 241.892 106.363C241.892 108.574 242.961 109.731 244.762 109.731C246.588 109.731 247.631 108.574 247.631 106.363ZM237.952 106.363C237.952 102.249 240.77 99.6774 244.762 99.6774C248.91 99.6774 251.571 102.351 251.571 106.363C251.571 110.503 248.884 113.074 244.762 113.074C240.613 113.074 237.952 110.426 237.952 106.363Z" fill="#2C2A29"/>
  <path fill-rule="evenodd" clip-rule="evenodd" d="M273.513 103.663V112.817H269.625V105.026C269.625 103.663 268.739 102.969 267.173 102.969C266.443 102.969 265.738 103.123 265.164 103.354C265.373 103.92 265.477 104.537 265.477 105.206V112.817H261.59V105.026C261.59 103.663 260.703 102.969 259.137 102.969C258.538 102.969 257.964 103.046 257.468 103.174V112.817H253.528L253.554 101.374C255.12 100.294 257.572 99.703 259.633 99.703C261.277 99.703 262.686 100.243 263.703 101.117C265.034 100.269 266.886 99.703 268.451 99.703C271.295 99.703 273.513 101.194 273.513 103.663Z" fill="#2C2A29"/>
  <path fill-rule="evenodd" clip-rule="evenodd" d="M285.437 106.183C285.437 103.817 284.184 102.969 282.176 102.969C281.367 102.969 280.715 103.123 280.141 103.38V109.834C280.845 109.937 281.524 109.988 282.15 109.988C284.445 109.988 285.437 108.24 285.437 106.183ZM289.324 105.694C289.324 110.374 286.507 113.074 281.915 113.074C279.671 113.074 277.506 112.662 276.201 112.071V96.3089C277.114 95.6403 279.123 95.0746 280.141 95.0746V101.169C281.263 100.217 282.619 99.703 283.845 99.703C287.733 99.703 289.324 102.351 289.324 105.694Z" fill="#2C2A29"/>
  <path fill-rule="evenodd" clip-rule="evenodd" d="M291.542 100.063C292.09 99.8316 292.768 99.7031 293.524 99.7031C294.281 99.7031 294.933 99.8316 295.481 100.063V112.817H291.542V100.063ZM291.489 96.0002C291.489 94.9204 292.402 94.0204 293.498 94.0204C294.62 94.0204 295.533 94.8947 295.533 96.0002C295.533 97.0545 294.62 97.9802 293.498 97.9802C292.402 97.9802 291.489 97.1059 291.489 96.0002Z" fill="#2C2A29"/>
  <path fill-rule="evenodd" clip-rule="evenodd" d="M305.369 109.526V107.314H304.612C302.838 107.314 301.221 107.7 301.221 108.908C301.221 109.834 301.847 110.168 303.125 110.168C304.143 110.168 304.978 109.86 305.369 109.526ZM309.204 104.717V111.48C307.795 112.534 305.526 113.1 302.447 113.1C299.707 113.1 297.438 111.994 297.438 109.551C297.438 105.874 301.064 104.974 305.369 104.846C305.291 103.251 304.638 102.84 303.203 102.84C302.447 102.84 300.438 103.174 300.177 103.174C299.551 103.174 299.055 102.789 298.638 101.657L298.325 100.732C299.942 100.14 301.534 99.7288 303.256 99.7288C307.013 99.7288 309.204 101.117 309.204 104.717Z" fill="#2C2A29"/>
  <path d="M347 85.5C347 85.2239 347.224 85 347.5 85C347.776 85 348 85.2239 348 85.5V124.5C348 124.776 347.776 125 347.5 125C347.224 125 347 124.776 347 124.5V85.5Z" fill="#CCCCCC"/>
  <path d="M376.28 98.96V112C376.053 112.067 375.853 112.1 375.68 112.1C375.507 112.1 375.307 112.067 375.08 112L367.04 101L367.08 102.74V112H365.88V98.96C366.053 98.9067 366.253 98.88 366.48 98.88C366.707 98.88 366.907 98.9067 367.08 98.96L375.12 110.04L375.08 108.62V98.96H376.28ZM383.308 112.2C382.375 112.2 381.555 111.987 380.848 111.56C380.142 111.133 379.595 110.533 379.208 109.76C378.822 108.987 378.628 108.087 378.628 107.06C378.628 106.047 378.822 105.147 379.208 104.36C379.595 103.573 380.142 102.96 380.848 102.52C381.555 102.08 382.375 101.86 383.308 101.86C384.242 101.86 385.062 102.08 385.768 102.52C386.475 102.96 387.022 103.573 387.408 104.36C387.795 105.147 387.988 106.047 387.988 107.06C387.988 108.087 387.795 108.993 387.408 109.78C387.022 110.553 386.475 111.153 385.768 111.58C385.062 111.993 384.242 112.2 383.308 112.2ZM383.308 111.14C384.402 111.14 385.255 110.787 385.868 110.08C386.495 109.373 386.808 108.367 386.808 107.06C386.808 105.767 386.495 104.753 385.868 104.02C385.255 103.287 384.402 102.92 383.308 102.92C382.215 102.92 381.355 103.287 380.728 104.02C380.115 104.753 379.808 105.767 379.808 107.06C379.808 108.367 380.115 109.373 380.728 110.08C381.342 110.787 382.202 111.14 383.308 111.14ZM400.682 101.96C401.788 101.96 402.622 102.247 403.182 102.82C403.742 103.38 404.022 104.247 404.022 105.42V112H402.862V105.68C402.862 104.72 402.662 104.033 402.262 103.62C401.862 103.207 401.175 103 400.202 103C399.722 103 399.248 103.073 398.782 103.22C398.315 103.353 397.908 103.52 397.562 103.72C397.735 104.187 397.822 104.753 397.822 105.42V112H396.662V105.68C396.662 104.747 396.462 104.067 396.062 103.64C395.675 103.213 394.982 103 393.982 103C393.542 103 393.095 103.073 392.642 103.22C392.202 103.353 391.815 103.52 391.482 103.72V112H390.322V102.08C390.948 102.08 391.315 102.353 391.422 102.9C391.795 102.633 392.255 102.413 392.802 102.24C393.348 102.053 393.902 101.96 394.462 101.96C395.782 101.96 396.708 102.347 397.242 103.12C397.575 102.813 398.062 102.547 398.702 102.32C399.342 102.08 400.002 101.96 400.682 101.96ZM411.14 101.94C412.54 101.94 413.567 102.367 414.22 103.22C414.887 104.06 415.22 105.16 415.22 106.52C415.22 108.32 414.833 109.72 414.06 110.72C413.3 111.707 412.26 112.2 410.94 112.2C410.38 112.2 409.84 112.127 409.32 111.98C408.813 111.82 408.367 111.627 407.98 111.4C407.793 111.8 407.427 112 406.88 112V98.6C407 98.4933 407.173 98.4 407.4 98.32C407.64 98.24 407.853 98.2 408.04 98.2V102.98C408.467 102.66 408.96 102.407 409.52 102.22C410.093 102.033 410.633 101.94 411.14 101.94ZM410.48 111.18C411.733 111.18 412.64 110.74 413.2 109.86C413.76 108.98 414.04 107.867 414.04 106.52C414.04 104.173 412.92 103 410.68 103C410.2 103 409.727 103.067 409.26 103.2C408.807 103.32 408.4 103.487 408.04 103.7V110.6C408.453 110.8 408.88 110.947 409.32 111.04C409.76 111.133 410.147 111.18 410.48 111.18ZM421.94 101.96C422.02 102.093 422.06 102.273 422.06 102.5C422.06 102.74 422.02 102.953 421.94 103.14C421.7 103.1 421.46 103.08 421.22 103.08C420.807 103.08 420.34 103.22 419.82 103.5C419.314 103.767 418.94 104.107 418.7 104.52V112H417.54V102.08C418.007 102.08 418.314 102.2 418.46 102.44C418.62 102.667 418.7 102.973 418.7 103.36C419.06 102.88 419.52 102.527 420.08 102.3C420.654 102.073 421.214 101.96 421.76 101.96H421.94ZM423.758 107.28V107.34C423.758 108.5 424.051 109.433 424.638 110.14C425.238 110.833 426.071 111.18 427.138 111.18C427.618 111.18 428.124 111.127 428.658 111.02C429.204 110.9 429.664 110.753 430.038 110.58C430.304 110.767 430.464 111.073 430.518 111.5C429.424 111.98 428.264 112.22 427.038 112.22C425.638 112.22 424.544 111.773 423.758 110.88C422.971 109.987 422.578 108.807 422.578 107.34C422.578 105.593 422.971 104.247 423.758 103.3C424.558 102.34 425.638 101.86 426.998 101.86C428.184 101.86 429.124 102.26 429.818 103.06C430.511 103.847 430.858 104.92 430.858 106.28C430.858 106.587 430.824 106.92 430.758 107.28H423.758ZM426.858 102.84C426.018 102.84 425.324 103.127 424.778 103.7C424.244 104.273 423.918 105.16 423.798 106.36H429.598C429.611 106.32 429.618 106.253 429.618 106.16C429.618 105.067 429.371 104.24 428.878 103.68C428.384 103.12 427.711 102.84 426.858 102.84Z" fill="#2C2A29"/>
  <path d="M478 83.5C478 83.2239 478.224 83 478.5 83C478.776 83 479 83.2239 479 83.5V122.5C479 122.776 478.776 123 478.5 123C478.224 123 478 122.776 478 122.5V83.5Z" fill="white"/>
  <path fill-rule="evenodd" clip-rule="evenodd" d="M506 93.7024L503.799 99.3289L498.001 99.7794C497.712 99.8019 497.443 99.9448 497.256 100.176L497.175 100.29C496.881 100.76 496.962 101.396 497.382 101.769L501.82 105.696L500.438 111.601C500.369 111.896 500.416 112.207 500.569 112.465L500.641 112.573C500.977 113.016 501.585 113.136 502.056 112.831L506.999 109.631L511.945 112.831C512.191 112.99 512.489 113.04 512.77 112.967L512.891 112.929C513.398 112.732 513.695 112.164 513.563 111.601L512.18 105.696L516.618 101.769C516.84 101.573 516.976 101.292 516.998 100.99L517 100.858C516.978 100.293 516.553 99.8223 516 99.7794L510.201 99.3289L508.001 93.7024C507.891 93.4218 507.678 93.1992 507.41 93.0844C506.857 92.8482 506.226 93.1249 506 93.7024ZM504.546 100.404L507 94.1302L509.455 100.404L515.92 100.906L510.972 105.286L512.513 111.87L507 108.302L501.488 111.87L503.029 105.286L498.081 100.906L504.546 100.404Z" fill="#2C2A29"/>
  <path d="M524.374 100V90.0059H525.536V100H524.374ZM530.333 99.2002C530.534 99.2002 530.727 99.1865 530.914 99.1592C531.101 99.1273 531.249 99.0954 531.359 99.0635V99.9316C531.236 99.9909 531.053 100.039 530.812 100.075C530.575 100.116 530.361 100.137 530.169 100.137C528.72 100.137 527.995 99.3734 527.995 97.8467V93.3896H526.922V92.8428L527.995 92.3711L528.474 90.7715H529.13V92.5078H531.304V93.3896H529.13V97.7988C529.13 98.25 529.237 98.5964 529.451 98.8379C529.666 99.0794 529.96 99.2002 530.333 99.2002ZM535.828 100.137C534.72 100.137 533.845 99.7995 533.203 99.125C532.565 98.4505 532.246 97.514 532.246 96.3154C532.246 95.1077 532.542 94.1484 533.134 93.4375C533.731 92.7266 534.531 92.3711 535.534 92.3711C536.472 92.3711 537.215 92.681 537.762 93.3008C538.309 93.916 538.582 94.7295 538.582 95.7412V96.459H533.421C533.444 97.3385 533.665 98.0062 534.084 98.4619C534.508 98.9176 535.103 99.1455 535.869 99.1455C536.675 99.1455 537.473 98.9769 538.261 98.6396V99.6514C537.86 99.8245 537.48 99.9476 537.12 100.021C536.764 100.098 536.333 100.137 535.828 100.137ZM535.52 93.3213C534.918 93.3213 534.438 93.5173 534.078 93.9092C533.722 94.3011 533.512 94.8434 533.449 95.5361H537.366C537.366 94.8206 537.206 94.2738 536.887 93.8955C536.568 93.5127 536.112 93.3213 535.52 93.3213ZM549.874 100V95.126C549.874 94.529 549.746 94.0824 549.491 93.7861C549.236 93.4854 548.839 93.335 548.301 93.335C547.595 93.335 547.073 93.5378 546.736 93.9434C546.399 94.349 546.23 94.9733 546.23 95.8164V100H545.095V95.126C545.095 94.529 544.968 94.0824 544.712 93.7861C544.457 93.4854 544.059 93.335 543.516 93.335C542.805 93.335 542.283 93.5492 541.951 93.9775C541.623 94.4014 541.459 95.0986 541.459 96.0693V100H540.324V92.5078H541.247L541.431 93.5332H541.486C541.7 93.1686 542.001 92.8838 542.388 92.6787C542.78 92.4736 543.218 92.3711 543.701 92.3711C544.872 92.3711 545.638 92.7949 545.998 93.6426H546.052C546.276 93.2507 546.599 92.9408 547.023 92.7129C547.447 92.485 547.93 92.3711 548.472 92.3711C549.32 92.3711 549.953 92.5898 550.373 93.0273C550.796 93.4603 551.008 94.1553 551.008 95.1123V100H549.874Z" fill="#292929"/>
  <path d="M524.178 117V108.434H525.174V117H524.178ZM529.286 116.314C529.457 116.314 529.623 116.303 529.784 116.279C529.944 116.252 530.071 116.225 530.165 116.197V116.941C530.059 116.992 529.903 117.033 529.696 117.064C529.493 117.1 529.309 117.117 529.145 117.117C527.903 117.117 527.282 116.463 527.282 115.154V111.334H526.362V110.865L527.282 110.461L527.692 109.09H528.254V110.578H530.118V111.334H528.254V115.113C528.254 115.5 528.346 115.797 528.53 116.004C528.713 116.211 528.965 116.314 529.286 116.314ZM533.995 117.117C533.046 117.117 532.296 116.828 531.745 116.25C531.198 115.672 530.925 114.869 530.925 113.842C530.925 112.807 531.179 111.984 531.686 111.375C532.198 110.766 532.884 110.461 533.743 110.461C534.548 110.461 535.184 110.727 535.653 111.258C536.122 111.785 536.356 112.482 536.356 113.35V113.965H531.933C531.952 114.719 532.142 115.291 532.501 115.682C532.864 116.072 533.374 116.268 534.03 116.268C534.722 116.268 535.405 116.123 536.081 115.834V116.701C535.737 116.85 535.411 116.955 535.102 117.018C534.798 117.084 534.429 117.117 533.995 117.117ZM533.731 111.275C533.216 111.275 532.804 111.443 532.495 111.779C532.19 112.115 532.011 112.58 531.956 113.174H535.313C535.313 112.561 535.177 112.092 534.903 111.768C534.63 111.439 534.239 111.275 533.731 111.275ZM546.035 117V112.822C546.035 112.311 545.925 111.928 545.706 111.674C545.488 111.416 545.148 111.287 544.687 111.287C544.081 111.287 543.634 111.461 543.345 111.809C543.056 112.156 542.911 112.691 542.911 113.414V117H541.939V112.822C541.939 112.311 541.829 111.928 541.611 111.674C541.392 111.416 541.05 111.287 540.585 111.287C539.976 111.287 539.529 111.471 539.244 111.838C538.962 112.201 538.822 112.799 538.822 113.631V117H537.849V110.578H538.64L538.798 111.457H538.845C539.029 111.145 539.286 110.9 539.619 110.725C539.954 110.549 540.329 110.461 540.744 110.461C541.747 110.461 542.404 110.824 542.712 111.551H542.759C542.951 111.215 543.228 110.949 543.591 110.754C543.954 110.559 544.369 110.461 544.833 110.461C545.56 110.461 546.103 110.648 546.462 111.023C546.826 111.395 547.007 111.99 547.007 112.811V117H546.035Z" fill="#292929"/>
  <path fill-rule="evenodd" clip-rule="evenodd" d="M577.092 98.2929L569.607 105.778C569.216 106.168 568.583 106.168 568.193 105.778L560.707 98.2929L560 98.9999L567.486 106.485C568.265 107.265 569.534 107.265 570.314 106.485L577.799 98.9999L577.092 98.2929Z" fill="#2C2A29"/>
  <path d="M597 83.5C597 83.2239 597.224 83 597.5 83C597.776 83 598 83.2239 598 83.5V122.5C598 122.776 597.776 123 597.5 123C597.224 123 597 122.776 597 122.5V83.5Z" fill="#CCCCCC"/>
  <path fill-rule="evenodd" clip-rule="evenodd" d="M625 93.7024L622.799 99.3289L617.001 99.7794C616.712 99.8019 616.443 99.9448 616.256 100.176L616.175 100.29C615.881 100.76 615.962 101.396 616.382 101.769L620.82 105.696L619.438 111.601C619.369 111.896 619.416 112.207 619.569 112.465L619.641 112.573C619.977 113.016 620.585 113.136 621.056 112.831L625.999 109.631L630.945 112.831C631.191 112.99 631.489 113.04 631.77 112.967L631.891 112.929C632.398 112.732 632.695 112.164 632.563 111.601L631.18 105.696L635.618 101.769C635.84 101.573 635.976 101.292 635.998 100.99L636 100.858C635.978 100.293 635.553 99.8223 635 99.7794L629.201 99.3289L627.001 93.7024C626.891 93.4218 626.678 93.1992 626.41 93.0844C625.857 92.8482 625.226 93.1249 625 93.7024ZM623.546 100.404L626 94.1302L628.455 100.404L634.92 100.906L629.972 105.286L631.513 111.87L626 108.302L620.488 111.87L622.029 105.286L617.081 100.906L623.546 100.404Z" fill="#2C2A29"/>
  <path d="M643.374 100V90.0059H644.536V100H643.374ZM649.333 99.2002C649.534 99.2002 649.727 99.1865 649.914 99.1592C650.101 99.1273 650.249 99.0954 650.359 99.0635V99.9316C650.236 99.9909 650.053 100.039 649.812 100.075C649.575 100.116 649.361 100.137 649.169 100.137C647.72 100.137 646.995 99.3734 646.995 97.8467V93.3896H645.922V92.8428L646.995 92.3711L647.474 90.7715H648.13V92.5078H650.304V93.3896H648.13V97.7988C648.13 98.25 648.237 98.5964 648.451 98.8379C648.666 99.0794 648.96 99.2002 649.333 99.2002ZM654.828 100.137C653.72 100.137 652.845 99.7995 652.203 99.125C651.565 98.4505 651.246 97.514 651.246 96.3154C651.246 95.1077 651.542 94.1484 652.134 93.4375C652.731 92.7266 653.531 92.3711 654.534 92.3711C655.472 92.3711 656.215 92.681 656.762 93.3008C657.309 93.916 657.582 94.7295 657.582 95.7412V96.459H652.421C652.444 97.3385 652.665 98.0062 653.084 98.4619C653.508 98.9176 654.103 99.1455 654.869 99.1455C655.675 99.1455 656.473 98.9769 657.261 98.6396V99.6514C656.86 99.8245 656.48 99.9476 656.12 100.021C655.764 100.098 655.333 100.137 654.828 100.137ZM654.52 93.3213C653.918 93.3213 653.438 93.5173 653.078 93.9092C652.722 94.3011 652.512 94.8434 652.449 95.5361H656.366C656.366 94.8206 656.206 94.2738 655.887 93.8955C655.568 93.5127 655.112 93.3213 654.52 93.3213ZM668.874 100V95.126C668.874 94.529 668.746 94.0824 668.491 93.7861C668.236 93.4854 667.839 93.335 667.301 93.335C666.595 93.335 666.073 93.5378 665.736 93.9434C665.399 94.349 665.23 94.9733 665.23 95.8164V100H664.095V95.126C664.095 94.529 663.968 94.0824 663.712 93.7861C663.457 93.4854 663.059 93.335 662.516 93.335C661.805 93.335 661.283 93.5492 660.951 93.9775C660.623 94.4014 660.459 95.0986 660.459 96.0693V100H659.324V92.5078H660.247L660.431 93.5332H660.486C660.7 93.1686 661.001 92.8838 661.388 92.6787C661.78 92.4736 662.218 92.3711 662.701 92.3711C663.872 92.3711 664.638 92.7949 664.998 93.6426H665.052C665.276 93.2507 665.599 92.9408 666.023 92.7129C666.447 92.485 666.93 92.3711 667.472 92.3711C668.32 92.3711 668.953 92.5898 669.373 93.0273C669.796 93.4603 670.008 94.1553 670.008 95.1123V100H668.874Z" fill="#292929"/>
  <path d="M643.178 117V108.434H644.174V117H643.178ZM648.286 116.314C648.457 116.314 648.623 116.303 648.784 116.279C648.944 116.252 649.071 116.225 649.165 116.197V116.941C649.059 116.992 648.903 117.033 648.696 117.064C648.493 117.1 648.309 117.117 648.145 117.117C646.903 117.117 646.282 116.463 646.282 115.154V111.334H645.362V110.865L646.282 110.461L646.692 109.09H647.254V110.578H649.118V111.334H647.254V115.113C647.254 115.5 647.346 115.797 647.53 116.004C647.713 116.211 647.965 116.314 648.286 116.314ZM652.995 117.117C652.046 117.117 651.296 116.828 650.745 116.25C650.198 115.672 649.925 114.869 649.925 113.842C649.925 112.807 650.179 111.984 650.686 111.375C651.198 110.766 651.884 110.461 652.743 110.461C653.548 110.461 654.184 110.727 654.653 111.258C655.122 111.785 655.356 112.482 655.356 113.35V113.965H650.933C650.952 114.719 651.142 115.291 651.501 115.682C651.864 116.072 652.374 116.268 653.03 116.268C653.722 116.268 654.405 116.123 655.081 115.834V116.701C654.737 116.85 654.411 116.955 654.102 117.018C653.798 117.084 653.429 117.117 652.995 117.117ZM652.731 111.275C652.216 111.275 651.804 111.443 651.495 111.779C651.19 112.115 651.011 112.58 650.956 113.174H654.313C654.313 112.561 654.177 112.092 653.903 111.768C653.63 111.439 653.239 111.275 652.731 111.275ZM665.035 117V112.822C665.035 112.311 664.925 111.928 664.706 111.674C664.488 111.416 664.148 111.287 663.687 111.287C663.081 111.287 662.634 111.461 662.345 111.809C662.056 112.156 661.911 112.691 661.911 113.414V117H660.939V112.822C660.939 112.311 660.829 111.928 660.611 111.674C660.392 111.416 660.05 111.287 659.585 111.287C658.976 111.287 658.529 111.471 658.244 111.838C657.962 112.201 657.822 112.799 657.822 113.631V117H656.849V110.578H657.64L657.798 111.457H657.845C658.029 111.145 658.286 110.9 658.619 110.725C658.954 110.549 659.329 110.461 659.744 110.461C660.747 110.461 661.404 110.824 661.712 111.551H661.759C661.951 111.215 662.228 110.949 662.591 110.754C662.954 110.559 663.369 110.461 663.833 110.461C664.56 110.461 665.103 110.648 665.462 111.023C665.826 111.395 666.007 111.99 666.007 112.811V117H665.035Z" fill="#292929"/>
  <path fill-rule="evenodd" clip-rule="evenodd" d="M696.092 98.2929L688.607 105.778C688.216 106.168 687.583 106.168 687.193 105.778L679.707 98.2929L679 98.9999L686.486 106.485C687.265 107.265 688.534 107.265 689.314 106.485L696.799 98.9999L696.092 98.2929Z" fill="#2C2A29"/>
  <path d="M716 83.5C716 83.2239 716.224 83 716.5 83C716.776 83 717 83.2239 717 83.5V122.5C717 122.776 716.776 123 716.5 123C716.224 123 716 122.776 716 122.5V83.5Z" fill="#CCCCCC"/>
  <path fill-rule="evenodd" clip-rule="evenodd" d="M744 93.7024L741.799 99.3289L736.001 99.7794C735.712 99.8019 735.443 99.9448 735.256 100.176L735.175 100.29C734.881 100.76 734.962 101.396 735.382 101.769L739.82 105.696L738.438 111.601C738.369 111.896 738.416 112.207 738.569 112.465L738.641 112.573C738.977 113.016 739.585 113.136 740.056 112.831L744.999 109.631L749.945 112.831C750.191 112.99 750.489 113.04 750.77 112.967L750.891 112.929C751.398 112.732 751.695 112.164 751.563 111.601L750.18 105.696L754.618 101.769C754.84 101.573 754.976 101.292 754.998 100.99L755 100.858C754.978 100.293 754.553 99.8223 754 99.7794L748.201 99.3289L746.001 93.7024C745.891 93.4218 745.678 93.1992 745.41 93.0844C744.857 92.8482 744.226 93.1249 744 93.7024ZM742.546 100.404L745 94.1302L747.455 100.404L753.92 100.906L748.972 105.286L750.513 111.87L745 108.302L739.488 111.87L741.029 105.286L736.081 100.906L742.546 100.404Z" fill="#2C2A29"/>
  <path d="M762.374 100V90.0059H763.536V100H762.374ZM768.333 99.2002C768.534 99.2002 768.727 99.1865 768.914 99.1592C769.101 99.1273 769.249 99.0954 769.359 99.0635V99.9316C769.236 99.9909 769.053 100.039 768.812 100.075C768.575 100.116 768.361 100.137 768.169 100.137C766.72 100.137 765.995 99.3734 765.995 97.8467V93.3896H764.922V92.8428L765.995 92.3711L766.474 90.7715H767.13V92.5078H769.304V93.3896H767.13V97.7988C767.13 98.25 767.237 98.5964 767.451 98.8379C767.666 99.0794 767.96 99.2002 768.333 99.2002ZM773.828 100.137C772.72 100.137 771.845 99.7995 771.203 99.125C770.565 98.4505 770.246 97.514 770.246 96.3154C770.246 95.1077 770.542 94.1484 771.134 93.4375C771.731 92.7266 772.531 92.3711 773.534 92.3711C774.472 92.3711 775.215 92.681 775.762 93.3008C776.309 93.916 776.582 94.7295 776.582 95.7412V96.459H771.421C771.444 97.3385 771.665 98.0062 772.084 98.4619C772.508 98.9176 773.103 99.1455 773.869 99.1455C774.675 99.1455 775.473 98.9769 776.261 98.6396V99.6514C775.86 99.8245 775.48 99.9476 775.12 100.021C774.764 100.098 774.333 100.137 773.828 100.137ZM773.52 93.3213C772.918 93.3213 772.438 93.5173 772.078 93.9092C771.722 94.3011 771.512 94.8434 771.449 95.5361H775.366C775.366 94.8206 775.206 94.2738 774.887 93.8955C774.568 93.5127 774.112 93.3213 773.52 93.3213ZM787.874 100V95.126C787.874 94.529 787.746 94.0824 787.491 93.7861C787.236 93.4854 786.839 93.335 786.301 93.335C785.595 93.335 785.073 93.5378 784.736 93.9434C784.399 94.349 784.23 94.9733 784.23 95.8164V100H783.095V95.126C783.095 94.529 782.968 94.0824 782.712 93.7861C782.457 93.4854 782.059 93.335 781.516 93.335C780.805 93.335 780.283 93.5492 779.951 93.9775C779.623 94.4014 779.459 95.0986 779.459 96.0693V100H778.324V92.5078H779.247L779.431 93.5332H779.486C779.7 93.1686 780.001 92.8838 780.388 92.6787C780.78 92.4736 781.218 92.3711 781.701 92.3711C782.872 92.3711 783.638 92.7949 783.998 93.6426H784.052C784.276 93.2507 784.599 92.9408 785.023 92.7129C785.447 92.485 785.93 92.3711 786.472 92.3711C787.32 92.3711 787.953 92.5898 788.373 93.0273C788.796 93.4603 789.008 94.1553 789.008 95.1123V100H787.874Z" fill="#292929"/>
  <path d="M762.178 117V108.434H763.174V117H762.178ZM767.286 116.314C767.457 116.314 767.623 116.303 767.784 116.279C767.944 116.252 768.071 116.225 768.165 116.197V116.941C768.059 116.992 767.903 117.033 767.696 117.064C767.493 117.1 767.309 117.117 767.145 117.117C765.903 117.117 765.282 116.463 765.282 115.154V111.334H764.362V110.865L765.282 110.461L765.692 109.09H766.254V110.578H768.118V111.334H766.254V115.113C766.254 115.5 766.346 115.797 766.53 116.004C766.713 116.211 766.965 116.314 767.286 116.314ZM771.995 117.117C771.046 117.117 770.296 116.828 769.745 116.25C769.198 115.672 768.925 114.869 768.925 113.842C768.925 112.807 769.179 111.984 769.686 111.375C770.198 110.766 770.884 110.461 771.743 110.461C772.548 110.461 773.184 110.727 773.653 111.258C774.122 111.785 774.356 112.482 774.356 113.35V113.965H769.933C769.952 114.719 770.142 115.291 770.501 115.682C770.864 116.072 771.374 116.268 772.03 116.268C772.722 116.268 773.405 116.123 774.081 115.834V116.701C773.737 116.85 773.411 116.955 773.102 117.018C772.798 117.084 772.429 117.117 771.995 117.117ZM771.731 111.275C771.216 111.275 770.804 111.443 770.495 111.779C770.19 112.115 770.011 112.58 769.956 113.174H773.313C773.313 112.561 773.177 112.092 772.903 111.768C772.63 111.439 772.239 111.275 771.731 111.275ZM784.035 117V112.822C784.035 112.311 783.925 111.928 783.706 111.674C783.488 111.416 783.148 111.287 782.687 111.287C782.081 111.287 781.634 111.461 781.345 111.809C781.056 112.156 780.911 112.691 780.911 113.414V117H779.939V112.822C779.939 112.311 779.829 111.928 779.611 111.674C779.392 111.416 779.05 111.287 778.585 111.287C777.976 111.287 777.529 111.471 777.244 111.838C776.962 112.201 776.822 112.799 776.822 113.631V117H775.849V110.578H776.64L776.798 111.457H776.845C777.029 111.145 777.286 110.9 777.619 110.725C777.954 110.549 778.329 110.461 778.744 110.461C779.747 110.461 780.404 110.824 780.712 111.551H780.759C780.951 111.215 781.228 110.949 781.591 110.754C781.954 110.559 782.369 110.461 782.833 110.461C783.56 110.461 784.103 110.648 784.462 111.023C784.826 111.395 785.007 111.99 785.007 112.811V117H784.035Z" fill="#292929"/>
  <path fill-rule="evenodd" clip-rule="evenodd" d="M815.092 98.2929L807.607 105.778C807.216 106.168 806.583 106.168 806.193 105.778L798.707 98.2929L798 98.9999L805.486 106.485C806.265 107.265 807.534 107.265 808.314 106.485L815.799 98.9999L815.092 98.2929Z" fill="#2C2A29"/>
  <defs>
    <filter id="filter0_d" x="41" y="66" width="802" height="76" filterUnits="userSpaceOnUse" color-interpolation-filters="sRGB">
      <feFlood flood-opacity="0" result="BackgroundImageFix"/>
      <feColorMatrix in="SourceAlpha" type="matrix" values="0 0 0 0 0 0 0 0 0 0 0 0 0 0 0 0 0 0 127 0"/>
      <feOffset dy="1"/>
      <feGaussianBlur stdDeviation="4"/>
      <feColorMatrix type="matrix" values="0 0 0 0 0 0 0 0 0 0 0 0 0 0 0 0 0 0 0.1 0"/>
      <feBlend mode="normal" in2="BackgroundImageFix" result="effect1_dropShadow"/>
      <feBlend mode="normal" in="SourceGraphic" in2="effect1_dropShadow" result="shape"/>
    </filter>
  </defs>
</svg>
