<svg width="272" height="130" viewBox="0 0 272 130" fill="none" xmlns="http://www.w3.org/2000/svg">
  <rect width="272" height="130" fill="#CCCCCC"/>
  <rect x="35" y="46" width="202" height="38" rx="19" fill="#FDDA24"/>
  <path d="M105.508 60.0781H108.898C110.471 60.0781 111.607 60.3073 112.305 60.7656C113.008 61.224 113.359 61.9479 113.359 62.9375C113.359 63.6042 113.188 64.1589 112.844 64.6016C112.5 65.0443 112.005 65.3229 111.359 65.4375V65.5156C112.161 65.6667 112.75 65.9661 113.125 66.4141C113.505 66.8568 113.695 67.4583 113.695 68.2188C113.695 69.2448 113.336 70.0495 112.617 70.6328C111.904 71.2109 110.909 71.5 109.633 71.5H105.508V60.0781ZM107.375 64.7969H109.172C109.953 64.7969 110.523 64.6745 110.883 64.4297C111.242 64.1797 111.422 63.7578 111.422 63.1641C111.422 62.6276 111.227 62.2396 110.836 62C110.451 61.7604 109.836 61.6406 108.992 61.6406H107.375V64.7969ZM107.375 66.3125V69.9297H109.359C110.141 69.9297 110.729 69.7812 111.125 69.4844C111.526 69.1823 111.727 68.7083 111.727 68.0625C111.727 67.4688 111.523 67.0286 111.117 66.7422C110.711 66.4557 110.094 66.3125 109.266 66.3125H107.375ZM124.723 60.0781V67.4688C124.723 68.3125 124.541 69.0521 124.177 69.6875C123.817 70.3177 123.294 70.8047 122.606 71.1484C121.924 71.487 121.106 71.6562 120.153 71.6562C118.736 71.6562 117.635 71.2812 116.848 70.5312C116.062 69.7812 115.669 68.75 115.669 67.4375V60.0781H117.544V67.3047C117.544 68.2474 117.762 68.9427 118.2 69.3906C118.637 69.8385 119.309 70.0625 120.216 70.0625C121.976 70.0625 122.856 69.138 122.856 67.2891V60.0781H124.723ZM131.291 71.5H129.423V61.6797H126.064V60.0781H134.65V61.6797H131.291V71.5ZM140.053 71.5H138.186V61.6797H134.827V60.0781H143.413V61.6797H140.053V71.5ZM155.011 65.7734C155.011 67.6328 154.545 69.0781 153.612 70.1094C152.685 71.1406 151.37 71.6562 149.667 71.6562C147.943 71.6562 146.618 71.1458 145.691 70.125C144.769 69.099 144.308 67.6432 144.308 65.7578C144.308 63.8724 144.771 62.4245 145.698 61.4141C146.631 60.4036 147.959 59.8984 149.683 59.8984C151.381 59.8984 152.693 60.4115 153.62 61.4375C154.547 62.4635 155.011 63.9089 155.011 65.7734ZM146.292 65.7734C146.292 67.1797 146.576 68.2474 147.144 68.9766C147.711 69.7005 148.553 70.0625 149.667 70.0625C150.777 70.0625 151.612 69.7031 152.175 68.9844C152.743 68.2656 153.027 67.1953 153.027 65.7734C153.027 64.3724 152.745 63.3099 152.183 62.5859C151.626 61.862 150.792 61.5 149.683 61.5C148.563 61.5 147.717 61.862 147.144 62.5859C146.576 63.3099 146.292 64.3724 146.292 65.7734ZM166.68 71.5H164.391L158.773 62.3984H158.711L158.75 62.9062C158.823 63.875 158.859 64.7604 158.859 65.5625V71.5H157.164V60.0781H159.43L165.031 69.1328H165.078C165.068 69.013 165.047 68.5781 165.016 67.8281C164.984 67.0729 164.969 66.4844 164.969 66.0625V60.0781H166.68V71.5Z" fill="#2C2A29"/>
  <path fill-rule="evenodd" clip-rule="evenodd" d="M209.293 73.092L210 73.799L217.485 66.314C217.863 65.936 218.071 65.434 218.071 64.9C218.071 64.365 217.863 63.863 217.485 63.486L210 56L209.293 56.707L216.778 64.193C216.841 64.2557 216.894 64.3251 216.937 64.3996H200V65.3996H216.938C216.894 65.4745 216.841 65.5442 216.778 65.607L209.293 73.092Z" fill="#2C2A29"/>
  <mask id="mask0" mask-type="alpha" maskUnits="userSpaceOnUse" x="200" y="56" width="19" height="18">
    <path fill-rule="evenodd" clip-rule="evenodd" d="M209.293 73.092L210 73.799L217.485 66.314C217.863 65.936 218.071 65.434 218.071 64.9C218.071 64.365 217.863 63.863 217.485 63.486L210 56L209.293 56.707L216.778 64.193C216.841 64.2557 216.894 64.3251 216.937 64.3996H200V65.3996H216.938C216.894 65.4745 216.841 65.5442 216.778 65.607L209.293 73.092Z" fill="white"/>
  </mask>
  <g mask="url(#mask0)">
    <rect x="197" y="53" width="24" height="24" fill="#2C2A29"/>
  </g>
</svg>
